%TF.GenerationSoftware,Altium Limited,Altium Designer,24.0.1 (36)*%
G04 Layer_Color=128*
%FSLAX45Y45*%
%MOMM*%
%TF.SameCoordinates,87475131-42DB-44E4-9C0F-69BDD36FC7AA*%
%TF.FilePolarity,Positive*%
%TF.FileFunction,Drillmap*%
%TF.Part,Single*%
G01*
G75*
%TA.AperFunction,NonConductor*%
%ADD41C,0.12700*%
D41*
X3643500Y1603200D02*
X3743500D01*
X3693500Y1553200D02*
Y1653200D01*
X3603500Y1857200D02*
X3703500D01*
X3653500Y1807200D02*
Y1907200D01*
X3643500Y2111200D02*
X3743500D01*
X3693500Y2061200D02*
Y2161200D01*
X3519500Y4746200D02*
X3619500D01*
X3569500Y4696200D02*
Y4796200D01*
X4281500Y4786200D02*
X4381500D01*
X4331500Y4736200D02*
Y4836200D01*
X4027500Y4746200D02*
X4127500D01*
X4077500Y4696200D02*
Y4796200D01*
X3773500Y4786200D02*
X3873500D01*
X3823500Y4736200D02*
Y4836200D01*
X3875900Y228600D02*
X4175900D01*
X4025900Y78600D02*
Y378600D01*
X4505100Y226500D02*
X4635100D01*
X4570100Y161500D02*
Y291500D01*
X5220100Y226500D02*
X5350100D01*
X5285100Y161500D02*
Y291500D01*
X3925100Y2893700D02*
X4025100D01*
X3975100Y2843700D02*
Y2943700D01*
X4687100Y2933700D02*
X4787100D01*
X4737100Y2883700D02*
Y2983700D01*
X4433100Y2893700D02*
X4533100D01*
X4483100Y2843700D02*
Y2943700D01*
X4179100Y2933700D02*
X4279100D01*
X4229100Y2883700D02*
Y2983700D01*
X6013100Y469900D02*
X6128100D01*
X6070600Y412400D02*
Y527400D01*
X6013100Y977900D02*
X6128100D01*
X6070600Y920400D02*
Y1035400D01*
X6013100Y1485900D02*
X6128100D01*
X6070600Y1428400D02*
Y1543400D01*
X5973100Y2247900D02*
X6088100D01*
X6030600Y2190400D02*
Y2305400D01*
X5973100Y2755900D02*
X6088100D01*
X6030600Y2698400D02*
Y2813400D01*
X5973100Y215900D02*
X6088100D01*
X6030600Y158400D02*
Y273400D01*
X5973100Y723900D02*
X6088100D01*
X6030600Y666400D02*
Y781400D01*
X5973100Y1231900D02*
X6088100D01*
X6030600Y1174400D02*
Y1289400D01*
X5973100Y1739900D02*
X6088100D01*
X6030600Y1682400D02*
Y1797400D01*
X6013100Y1993900D02*
X6128100D01*
X6070600Y1936400D02*
Y2051400D01*
X6013100Y2501900D02*
X6128100D01*
X6070600Y2444400D02*
Y2559400D01*
X4727500Y3695700D02*
X4797500D01*
X4762500Y3660700D02*
Y3730700D01*
X4727500Y3949700D02*
X4797500D01*
X4762500Y3914700D02*
Y3984700D01*
X5623353Y3695699D02*
X5693353D01*
X5658353Y3660700D02*
Y3730699D01*
X5623353Y3949699D02*
X5693353D01*
X5658353Y3914700D02*
Y3984699D01*
X91300Y292100D02*
X391300D01*
X241300Y142100D02*
Y442100D01*
X2699400Y1168400D02*
X2809400D01*
X2754400Y1113400D02*
Y1223400D01*
X2699400Y668400D02*
X2809400D01*
X2754400Y613400D02*
Y723400D01*
X3049400Y1168400D02*
X3159400D01*
X3104400Y1113400D02*
Y1223400D01*
X3049400Y668400D02*
X3159400D01*
X3104400Y613400D02*
Y723400D01*
X3399400Y1168400D02*
X3509400D01*
X3454400Y1113400D02*
Y1223400D01*
X3399400Y668400D02*
X3509400D01*
X3454400Y613400D02*
Y723400D01*
X2767500Y3048000D02*
X2867500D01*
X2817500Y2998000D02*
Y3098000D01*
X2807500Y3302000D02*
X2907500D01*
X2857500Y3252000D02*
Y3352000D01*
X2767500Y3556000D02*
X2867500D01*
X2817500Y3506000D02*
Y3606000D01*
X2216150Y4368800D02*
X2381250D01*
X2298700Y4286250D02*
Y4451350D01*
X692150Y4368800D02*
X857250D01*
X774700Y4286250D02*
Y4451350D01*
X2216150Y304800D02*
X2381250D01*
X2298700Y222250D02*
Y387350D01*
X692150Y304800D02*
X857250D01*
X774700Y222250D02*
Y387350D01*
X2248700Y4114800D02*
X2348700D01*
X2298700Y4064800D02*
Y4164800D01*
X2208700Y3860800D02*
X2308700D01*
X2258700Y3810800D02*
Y3910800D01*
X2248700Y3606800D02*
X2348700D01*
X2298700Y3556800D02*
Y3656800D01*
X2208700Y3352800D02*
X2308700D01*
X2258700Y3302800D02*
Y3402800D01*
X2248700Y3098800D02*
X2348700D01*
X2298700Y3048800D02*
Y3148800D01*
X2208700Y2844800D02*
X2308700D01*
X2258700Y2794800D02*
Y2894800D01*
X2248700Y2590800D02*
X2348700D01*
X2298700Y2540800D02*
Y2640800D01*
X2208700Y2336800D02*
X2308700D01*
X2258700Y2286800D02*
Y2386800D01*
X2248700Y2082800D02*
X2348700D01*
X2298700Y2032800D02*
Y2132800D01*
X2208700Y1828800D02*
X2308700D01*
X2258700Y1778800D02*
Y1878800D01*
X2248700Y1574800D02*
X2348700D01*
X2298700Y1524800D02*
Y1624800D01*
X2208700Y1320800D02*
X2308700D01*
X2258700Y1270800D02*
Y1370800D01*
X2248700Y1066800D02*
X2348700D01*
X2298700Y1016800D02*
Y1116800D01*
X2208700Y812800D02*
X2308700D01*
X2258700Y762800D02*
Y862800D01*
X2248700Y558800D02*
X2348700D01*
X2298700Y508800D02*
Y608800D01*
X724700Y558800D02*
X824700D01*
X774700Y508800D02*
Y608800D01*
X764700Y812800D02*
X864700D01*
X814700Y762800D02*
Y862800D01*
X724700Y1066800D02*
X824700D01*
X774700Y1016800D02*
Y1116800D01*
X764700Y1320800D02*
X864700D01*
X814700Y1270800D02*
Y1370800D01*
X724700Y1574800D02*
X824700D01*
X774700Y1524800D02*
Y1624800D01*
X764700Y1828800D02*
X864700D01*
X814700Y1778800D02*
Y1878800D01*
X724700Y2082800D02*
X824700D01*
X774700Y2032800D02*
Y2132800D01*
X764700Y2336800D02*
X864700D01*
X814700Y2286800D02*
Y2386800D01*
X724700Y2590800D02*
X824700D01*
X774700Y2540800D02*
Y2640800D01*
X764700Y2844800D02*
X864700D01*
X814700Y2794800D02*
Y2894800D01*
X724700Y3098800D02*
X824700D01*
X774700Y3048800D02*
Y3148800D01*
X764700Y3352800D02*
X864700D01*
X814700Y3302800D02*
Y3402800D01*
X724700Y3606800D02*
X824700D01*
X774700Y3556800D02*
Y3656800D01*
X764700Y3860800D02*
X864700D01*
X814700Y3810800D02*
Y3910800D01*
X724700Y4114800D02*
X824700D01*
X774700Y4064800D02*
Y4164800D01*
X91300Y4660900D02*
X391300D01*
X241300Y4510900D02*
Y4810900D01*
X5831700Y4660900D02*
X6131700D01*
X5981700Y4510900D02*
Y4810900D01*
X5384685Y2021485D02*
X5414685D01*
X5399685Y2006485D02*
Y2036485D01*
X5278956Y2030930D02*
X5308956D01*
X5293956Y2015930D02*
Y2045930D01*
X3959968Y4368668D02*
X3989968D01*
X3974968Y4353668D02*
Y4383668D01*
X4049000Y4368800D02*
X4079000D01*
X4064000Y4353800D02*
Y4383800D01*
X4239500Y3949700D02*
X4269500D01*
X4254500Y3934700D02*
Y3964700D01*
X3878527Y3588727D02*
X3908527D01*
X3893527Y3573727D02*
Y3603727D01*
X5165526Y1954726D02*
X5195526D01*
X5180526Y1939726D02*
Y1969726D01*
X4823700Y1905000D02*
X4853700D01*
X4838700Y1890000D02*
Y1920000D01*
X4925300Y1943100D02*
X4955300D01*
X4940300Y1928100D02*
Y1958100D01*
X4887200Y2171700D02*
X4917200D01*
X4902200Y2156700D02*
Y2186700D01*
X4696700Y1917700D02*
X4726700D01*
X4711700Y1902700D02*
Y1932700D01*
X4468100Y2501900D02*
X4498100D01*
X4483100Y2486900D02*
Y2516900D01*
X5725400Y1485900D02*
X5755400D01*
X5740400Y1470900D02*
Y1500900D01*
X4341100Y1231900D02*
X4371100D01*
X4356100Y1216900D02*
Y1246900D01*
X4341100Y812800D02*
X4371100D01*
X4356100Y797800D02*
Y827800D01*
X4569700Y774700D02*
X4599700D01*
X4584700Y759700D02*
Y789700D01*
X4931500Y705000D02*
X4961500D01*
X4946500Y690000D02*
Y720000D01*
X4760200Y787400D02*
X4790200D01*
X4775200Y772400D02*
Y802400D01*
X1572500Y4076700D02*
X1602500D01*
X1587500Y4061700D02*
Y4091700D01*
%TF.MD5,ec2fe383e34c441943ca31f925f018a7*%
M02*
