%TF.GenerationSoftware,Altium Limited,Altium Designer,24.0.1 (36)*%
G04 Layer_Color=16711935*
%FSLAX45Y45*%
%MOMM*%
%TF.SameCoordinates,87475131-42DB-44E4-9C0F-69BDD36FC7AA*%
%TF.FilePolarity,Negative*%
%TF.FileFunction,Soldermask,Bot*%
%TF.Part,Single*%
G01*
G75*
%TA.AperFunction,ComponentPad*%
%ADD50R,1.72720X1.72720*%
%ADD51C,1.72720*%
%ADD52R,1.72720X1.72720*%
%ADD53C,1.70320*%
%ADD54C,2.15320*%
%ADD55C,1.92820*%
%ADD56R,1.92820X1.92820*%
%ADD57R,1.40320X1.40320*%
%ADD58C,1.40320*%
%ADD59R,1.85320X1.85320*%
%ADD60C,1.85320*%
%ADD61C,1.85420*%
%ADD62C,1.71120*%
%ADD63R,1.71120X1.71120*%
%TA.AperFunction,ViaPad*%
%ADD64C,0.80320*%
D50*
X3693500Y1603200D02*
D03*
X2817500Y3556000D02*
D03*
D51*
X3653500Y1857200D02*
D03*
X3693500Y2111200D02*
D03*
X3569500Y4746200D02*
D03*
X4077500D02*
D03*
X3823500Y4786200D02*
D03*
X3975100Y2893700D02*
D03*
X4483100D02*
D03*
X4229100Y2933700D02*
D03*
X2817500Y3048000D02*
D03*
X2857500Y3302000D02*
D03*
D52*
X4331500Y4786200D02*
D03*
X4737100Y2933700D02*
D03*
D53*
X4025900Y228600D02*
D03*
X241300Y292100D02*
D03*
Y4660900D02*
D03*
X5981700D02*
D03*
D54*
X4570100Y226500D02*
D03*
X5285100D02*
D03*
D55*
X6070600Y469900D02*
D03*
Y977900D02*
D03*
Y1485900D02*
D03*
X6030600Y2247900D02*
D03*
Y215900D02*
D03*
Y723900D02*
D03*
Y1231900D02*
D03*
Y1739900D02*
D03*
X6070600Y1993900D02*
D03*
Y2501900D02*
D03*
D56*
X6030600Y2755900D02*
D03*
D57*
X4762500Y3695700D02*
D03*
X5658353Y3695699D02*
D03*
D58*
X4762500Y3949700D02*
D03*
X5658353Y3949699D02*
D03*
D59*
X2754400Y1168400D02*
D03*
D60*
Y668400D02*
D03*
X3104400Y1168400D02*
D03*
Y668400D02*
D03*
X3454400Y1168400D02*
D03*
Y668400D02*
D03*
D61*
X2298700Y4368800D02*
D03*
X774700D02*
D03*
X2298700Y304800D02*
D03*
X774700D02*
D03*
D62*
X2298700Y4114800D02*
D03*
X2258700Y3860800D02*
D03*
X2298700Y3606800D02*
D03*
X2258700Y3352800D02*
D03*
X2298700Y3098800D02*
D03*
X2258700Y2844800D02*
D03*
X2298700Y2590800D02*
D03*
X2258700Y2336800D02*
D03*
X2298700Y2082800D02*
D03*
X2258700Y1828800D02*
D03*
X2298700Y1574800D02*
D03*
X2258700Y1320800D02*
D03*
X2298700Y1066800D02*
D03*
X2258700Y812800D02*
D03*
X2298700Y558800D02*
D03*
X774700D02*
D03*
X814700Y812800D02*
D03*
X774700Y1066800D02*
D03*
X814700Y1320800D02*
D03*
X774700Y1574800D02*
D03*
X814700Y1828800D02*
D03*
X774700Y2082800D02*
D03*
X814700Y2336800D02*
D03*
X774700Y2590800D02*
D03*
X814700Y2844800D02*
D03*
X774700Y3098800D02*
D03*
X814700Y3352800D02*
D03*
X774700Y3606800D02*
D03*
X814700Y3860800D02*
D03*
D63*
X774700Y4114800D02*
D03*
D64*
X5399685Y2021485D02*
D03*
X5293956Y2030930D02*
D03*
X3974968Y4368668D02*
D03*
X4064000Y4368800D02*
D03*
X4254500Y3949700D02*
D03*
X3893527Y3588727D02*
D03*
X5180526Y1954726D02*
D03*
X4838700Y1905000D02*
D03*
X4940300Y1943100D02*
D03*
X4902200Y2171700D02*
D03*
X4711700Y1917700D02*
D03*
X4483100Y2501900D02*
D03*
X5740400Y1485900D02*
D03*
X4356100Y1231900D02*
D03*
Y812800D02*
D03*
X4584700Y774700D02*
D03*
X4946500Y705000D02*
D03*
X4775200Y787400D02*
D03*
X1587500Y4076700D02*
D03*
%TF.MD5,5146901b4571a07de4e8c3eeef182de5*%
M02*
