%TF.GenerationSoftware,Altium Limited,Altium Designer,24.0.1 (36)*%
G04 Layer_Physical_Order=2*
G04 Layer_Color=16711680*
%FSLAX45Y45*%
%MOMM*%
%TF.SameCoordinates,87475131-42DB-44E4-9C0F-69BDD36FC7AA*%
%TF.FilePolarity,Positive*%
%TF.FileFunction,Copper,L2,Bot,Signal*%
%TF.Part,Single*%
G01*
G75*
%TA.AperFunction,Conductor*%
%ADD18C,1.00000*%
%ADD19C,0.38100*%
%ADD20C,0.25400*%
%ADD21C,0.50000*%
%TA.AperFunction,ComponentPad*%
%ADD22R,1.52400X1.52400*%
%ADD23C,1.52400*%
%ADD24R,1.52400X1.52400*%
%ADD25C,1.50000*%
%ADD26C,1.95000*%
%ADD27C,1.72500*%
%ADD28R,1.72500X1.72500*%
%ADD29R,1.20000X1.20000*%
%ADD30C,1.20000*%
%ADD31R,1.65000X1.65000*%
%ADD32C,1.65000*%
%ADD33C,1.65100*%
%ADD34C,1.50800*%
%ADD35R,1.50800X1.50800*%
%TA.AperFunction,ViaPad*%
%ADD36C,0.60000*%
G36*
X6228842Y57658D02*
X4152293D01*
X4148606Y69811D01*
X4153520Y73094D01*
X4181406Y100980D01*
X4203315Y133770D01*
X4218407Y170204D01*
X4226100Y208882D01*
Y248318D01*
X4218407Y286996D01*
X4203315Y323430D01*
X4181406Y356220D01*
X4153520Y384106D01*
X4120730Y406015D01*
X4084296Y421107D01*
X4045618Y428800D01*
X4006182D01*
X3967504Y421107D01*
X3931070Y406015D01*
X3898280Y384106D01*
X3870394Y356220D01*
X3848485Y323430D01*
X3833393Y286996D01*
X3825700Y248318D01*
Y208882D01*
X3833393Y170204D01*
X3848485Y133770D01*
X3870394Y100980D01*
X3898280Y73094D01*
X3903194Y69811D01*
X3899507Y57658D01*
X57658D01*
Y183729D01*
X70358Y187582D01*
X85794Y164480D01*
X113680Y136594D01*
X146470Y114685D01*
X182904Y99593D01*
X221582Y91900D01*
X261018D01*
X299696Y99593D01*
X336130Y114685D01*
X368920Y136594D01*
X396806Y164480D01*
X418715Y197270D01*
X433807Y233704D01*
X441500Y272382D01*
Y311818D01*
X433807Y350496D01*
X418715Y386930D01*
X396806Y419720D01*
X368920Y447606D01*
X336130Y469515D01*
X299696Y484607D01*
X261018Y492300D01*
X221582D01*
X182904Y484607D01*
X146470Y469515D01*
X113680Y447606D01*
X85794Y419720D01*
X70358Y396618D01*
X57658Y400471D01*
Y4552529D01*
X70358Y4556382D01*
X85794Y4533280D01*
X113680Y4505394D01*
X146470Y4483485D01*
X182904Y4468393D01*
X221582Y4460700D01*
X261018D01*
X299696Y4468393D01*
X336130Y4483485D01*
X368920Y4505394D01*
X396806Y4533280D01*
X418715Y4566070D01*
X433807Y4602504D01*
X441500Y4641182D01*
Y4680618D01*
X433807Y4719296D01*
X418715Y4755730D01*
X396806Y4788520D01*
X368920Y4816406D01*
X345818Y4831842D01*
X349671Y4844542D01*
X3511233D01*
X3514636Y4831842D01*
X3507116Y4827500D01*
X3488200Y4808584D01*
X3474824Y4785416D01*
X3467900Y4759576D01*
Y4758901D01*
X3569499D01*
X3671100D01*
Y4759576D01*
X3664176Y4785416D01*
X3650800Y4808584D01*
X3631884Y4827500D01*
X3624364Y4831842D01*
X3627767Y4844542D01*
X3698255D01*
X3704871Y4831842D01*
X3697100Y4802841D01*
Y4769559D01*
X3705714Y4737411D01*
X3722355Y4708588D01*
X3745888Y4685055D01*
X3774711Y4668414D01*
X3806859Y4659800D01*
X3831120D01*
X3840618Y4650302D01*
Y4370375D01*
Y4338191D01*
X3842998Y4320114D01*
X3849976Y4303267D01*
X3861076Y4288802D01*
X3911946Y4237931D01*
X3926412Y4226831D01*
X3943258Y4219853D01*
X3961336Y4217473D01*
X4007272D01*
X4015703Y4218583D01*
X4024150Y4219543D01*
X4024730Y4219772D01*
X4025350Y4219853D01*
X4033208Y4223108D01*
X4041117Y4226221D01*
X4041619Y4226592D01*
X4042196Y4226831D01*
X4048945Y4232010D01*
X4055778Y4237063D01*
X4074406Y4255042D01*
X4074794Y4255530D01*
X4075290Y4255910D01*
X4113390Y4294010D01*
X4124490Y4308476D01*
X4131373Y4325093D01*
X4138735Y4337844D01*
X4144200Y4358241D01*
Y4379359D01*
X4138735Y4399756D01*
X4128176Y4418044D01*
X4113244Y4432976D01*
X4094956Y4443535D01*
X4074559Y4449000D01*
X4053442D01*
X4043813Y4456388D01*
Y4613936D01*
X4053889Y4621668D01*
X4060859Y4619800D01*
X4094141D01*
X4126288Y4628414D01*
X4155111Y4645055D01*
X4178645Y4668589D01*
X4192400Y4692412D01*
X4205100Y4689009D01*
Y4659800D01*
X4457900D01*
Y4844542D01*
X5873329D01*
X5877182Y4831842D01*
X5854080Y4816406D01*
X5826194Y4788520D01*
X5804285Y4755730D01*
X5789193Y4719296D01*
X5781500Y4680618D01*
Y4641182D01*
X5789193Y4602504D01*
X5804285Y4566070D01*
X5826194Y4533280D01*
X5854080Y4505394D01*
X5886870Y4483485D01*
X5923304Y4468393D01*
X5961982Y4460700D01*
X6001418D01*
X6040096Y4468393D01*
X6076530Y4483485D01*
X6109320Y4505394D01*
X6137206Y4533280D01*
X6159115Y4566070D01*
X6174207Y4602504D01*
X6181900Y4641182D01*
Y4680618D01*
X6174207Y4719296D01*
X6159115Y4755730D01*
X6137206Y4788520D01*
X6109320Y4816406D01*
X6086218Y4831842D01*
X6090071Y4844542D01*
X6228842D01*
X6228842Y57658D01*
D02*
G37*
%LPC*%
G36*
X3671100Y4733501D02*
X3582199D01*
Y4644600D01*
X3582876D01*
X3608716Y4651524D01*
X3631884Y4664900D01*
X3650800Y4683816D01*
X3664176Y4706984D01*
X3671100Y4732824D01*
Y4733501D01*
D02*
G37*
G36*
X3556799D02*
X3467900D01*
Y4732824D01*
X3474824Y4706984D01*
X3488200Y4683816D01*
X3507116Y4664900D01*
X3530284Y4651524D01*
X3556124Y4644600D01*
X3556799D01*
Y4733501D01*
D02*
G37*
G36*
X2316177Y4501550D02*
X2281223D01*
X2247460Y4492503D01*
X2217190Y4475027D01*
X2192473Y4450310D01*
X2174997Y4420040D01*
X2165950Y4386277D01*
Y4351323D01*
X2174997Y4317560D01*
X2192473Y4287290D01*
X2217190Y4262573D01*
X2247460Y4245097D01*
X2250220Y4244357D01*
Y4235213D01*
X2249473Y4231409D01*
X2221580Y4215305D01*
X2198195Y4191920D01*
X2181659Y4163280D01*
X2173100Y4131336D01*
Y4098264D01*
X2181659Y4066320D01*
X2198195Y4037680D01*
X2221580Y4014295D01*
X2250220Y3997759D01*
X2282164Y3989200D01*
X2315236D01*
X2347180Y3997759D01*
X2375820Y4014295D01*
X2399205Y4037680D01*
X2415741Y4066320D01*
X2424300Y4098264D01*
Y4131336D01*
X2415741Y4163280D01*
X2399205Y4191920D01*
X2375820Y4215305D01*
X2347927Y4231409D01*
X2347180Y4235213D01*
Y4244357D01*
X2349940Y4245097D01*
X2380210Y4262573D01*
X2404927Y4287290D01*
X2422403Y4317560D01*
X2431450Y4351323D01*
Y4386277D01*
X2422403Y4420040D01*
X2404927Y4450310D01*
X2380210Y4475027D01*
X2349940Y4492503D01*
X2316177Y4501550D01*
D02*
G37*
G36*
X2271971Y3961600D02*
X2271400D01*
Y3873500D01*
X2359500D01*
Y3874070D01*
X2352631Y3899707D01*
X2339360Y3922692D01*
X2320593Y3941460D01*
X2297607Y3954730D01*
X2271971Y3961600D01*
D02*
G37*
G36*
X2246000D02*
X2245430D01*
X2219793Y3954730D01*
X2196808Y3941460D01*
X2178040Y3922692D01*
X2164770Y3899707D01*
X2157900Y3874070D01*
Y3873500D01*
X2246000D01*
Y3961600D01*
D02*
G37*
G36*
X4777008Y4059900D02*
X4747992D01*
X4719964Y4052390D01*
X4694836Y4037882D01*
X4674318Y4017364D01*
X4659810Y3992236D01*
X4652300Y3964208D01*
Y3935192D01*
X4659810Y3907164D01*
X4674318Y3882036D01*
X4694836Y3861518D01*
X4719964Y3847010D01*
X4747992Y3839500D01*
X4777008D01*
X4805036Y3847010D01*
X4830164Y3861518D01*
X4850682Y3882036D01*
X4865190Y3907164D01*
X4872700Y3935192D01*
Y3964208D01*
X4865190Y3992236D01*
X4850682Y4017364D01*
X4830164Y4037882D01*
X4805036Y4052390D01*
X4777008Y4059900D01*
D02*
G37*
G36*
X5672862Y4059899D02*
X5643845D01*
X5615818Y4052390D01*
X5590689Y4037881D01*
X5570171Y4017364D01*
X5555663Y3992235D01*
X5548153Y3964208D01*
Y3935191D01*
X5555663Y3907164D01*
X5570171Y3882035D01*
X5590689Y3861518D01*
X5615818Y3847009D01*
X5643845Y3839500D01*
X5672862D01*
X5700889Y3847009D01*
X5726018Y3861518D01*
X5746535Y3882035D01*
X5761044Y3907164D01*
X5768553Y3935191D01*
Y3964208D01*
X5761044Y3992235D01*
X5746535Y4017364D01*
X5726018Y4037881D01*
X5700889Y4052390D01*
X5672862Y4059899D01*
D02*
G37*
G36*
X2359500Y3848100D02*
X2271400D01*
Y3760000D01*
X2271971D01*
X2297607Y3766870D01*
X2320593Y3780140D01*
X2339360Y3798908D01*
X2352631Y3821893D01*
X2359500Y3847530D01*
Y3848100D01*
D02*
G37*
G36*
X2246000D02*
X2157900D01*
Y3847530D01*
X2164770Y3821893D01*
X2178040Y3798908D01*
X2196808Y3780140D01*
X2219793Y3766870D01*
X2245430Y3760000D01*
X2246000D01*
Y3848100D01*
D02*
G37*
G36*
X4872700Y3805900D02*
X4652300D01*
Y3585500D01*
X4872700D01*
Y3805900D01*
D02*
G37*
G36*
X5768553Y3805899D02*
X5548153D01*
Y3585500D01*
X5768553D01*
Y3805899D01*
D02*
G37*
G36*
X2919100Y3657600D02*
X2830200D01*
Y3568700D01*
X2919100D01*
Y3657600D01*
D02*
G37*
G36*
X2804800D02*
X2715900D01*
Y3568700D01*
X2804800D01*
Y3657600D01*
D02*
G37*
G36*
X4265059Y4029900D02*
X4243941D01*
X4223544Y4024435D01*
X4205256Y4013876D01*
X4190324Y3998944D01*
X4187986Y3994895D01*
X4183037Y3991097D01*
X3885316Y3693376D01*
X3872743Y3691721D01*
X3848368Y3681625D01*
X3827437Y3665563D01*
X3822063Y3660190D01*
X3806002Y3639259D01*
X3795906Y3614884D01*
X3792462Y3588727D01*
X3795906Y3562569D01*
X3806002Y3538194D01*
X3822063Y3517263D01*
X3842994Y3501202D01*
X3867369Y3491106D01*
X3893527Y3487662D01*
X3919684Y3491106D01*
X3924343Y3493035D01*
X3928966D01*
X3955124Y3496479D01*
X3979499Y3506575D01*
X4000430Y3522637D01*
X4325963Y3848170D01*
X4342025Y3869101D01*
X4352121Y3893476D01*
X4355565Y3919634D01*
X4352121Y3945791D01*
X4342025Y3970166D01*
X4325963Y3991097D01*
X4321014Y3994895D01*
X4318676Y3998944D01*
X4303744Y4013876D01*
X4285456Y4024435D01*
X4265059Y4029900D01*
D02*
G37*
G36*
X792177Y4501550D02*
X757223D01*
X723460Y4492503D01*
X693190Y4475027D01*
X668473Y4450310D01*
X650997Y4420040D01*
X641950Y4386277D01*
Y4351323D01*
X650997Y4317560D01*
X668473Y4287290D01*
X693190Y4262573D01*
X709598Y4253100D01*
X706195Y4240400D01*
X649100D01*
Y3989200D01*
X761750D01*
X762910Y3986253D01*
X763898Y3976500D01*
X737580Y3961305D01*
X714195Y3937920D01*
X697659Y3909280D01*
X689100Y3877336D01*
Y3844264D01*
X697659Y3812320D01*
X714195Y3783680D01*
X737580Y3760295D01*
X763898Y3745100D01*
X762910Y3735347D01*
X761750Y3732400D01*
X758164D01*
X726220Y3723841D01*
X697580Y3707305D01*
X674195Y3683920D01*
X657659Y3655280D01*
X649100Y3623336D01*
Y3590264D01*
X657659Y3558320D01*
X674195Y3529680D01*
X697580Y3506295D01*
X726220Y3489759D01*
X758164Y3481200D01*
X791236D01*
X823180Y3489759D01*
X851820Y3506295D01*
X875205Y3529680D01*
X891741Y3558320D01*
X900300Y3590264D01*
Y3623336D01*
X891741Y3655280D01*
X875205Y3683920D01*
X851820Y3707305D01*
X825502Y3722500D01*
X826490Y3732253D01*
X827650Y3735200D01*
X831236D01*
X863180Y3743759D01*
X891820Y3760295D01*
X915205Y3783680D01*
X931741Y3812320D01*
X940300Y3844264D01*
Y3877336D01*
X931741Y3909280D01*
X915205Y3937920D01*
X891820Y3961305D01*
X865502Y3976500D01*
X866490Y3986253D01*
X867650Y3989200D01*
X900300D01*
Y4240400D01*
X843205D01*
X839802Y4253100D01*
X856210Y4262573D01*
X880927Y4287290D01*
X898403Y4317560D01*
X907450Y4351323D01*
Y4386277D01*
X898403Y4420040D01*
X880927Y4450310D01*
X856210Y4475027D01*
X825940Y4492503D01*
X792177Y4501550D01*
D02*
G37*
G36*
X2919100Y3543300D02*
X2830200D01*
Y3454400D01*
X2919100D01*
Y3543300D01*
D02*
G37*
G36*
X2804800D02*
X2715900D01*
Y3454400D01*
X2804800D01*
Y3543300D01*
D02*
G37*
G36*
X827970Y3453600D02*
X827400D01*
Y3365500D01*
X915500D01*
Y3366070D01*
X908630Y3391707D01*
X895360Y3414692D01*
X876592Y3433460D01*
X853607Y3446730D01*
X827970Y3453600D01*
D02*
G37*
G36*
X802000D02*
X801429D01*
X775793Y3446730D01*
X752807Y3433460D01*
X734040Y3414692D01*
X720769Y3391707D01*
X713900Y3366070D01*
Y3365500D01*
X802000D01*
Y3453600D01*
D02*
G37*
G36*
X915500Y3340100D02*
X827400D01*
Y3252000D01*
X827970D01*
X853607Y3258870D01*
X876592Y3272140D01*
X895360Y3290908D01*
X908630Y3313893D01*
X915500Y3339530D01*
Y3340100D01*
D02*
G37*
G36*
X802000D02*
X713900D01*
Y3339530D01*
X720769Y3313893D01*
X734040Y3290908D01*
X752807Y3272140D01*
X775793Y3258870D01*
X801429Y3252000D01*
X802000D01*
Y3340100D01*
D02*
G37*
G36*
X4863500Y3060100D02*
X4610700D01*
Y2950891D01*
X4598000Y2947488D01*
X4584245Y2971312D01*
X4560711Y2994845D01*
X4531889Y3011486D01*
X4499741Y3020100D01*
X4466459D01*
X4434311Y3011486D01*
X4405489Y2994845D01*
X4381955Y2971312D01*
X4368200Y2947488D01*
X4356528Y2950110D01*
X4355399Y2950716D01*
X4346886Y2982489D01*
X4330245Y3011311D01*
X4306711Y3034845D01*
X4277889Y3051486D01*
X4245741Y3060100D01*
X4212459D01*
X4180311Y3051486D01*
X4151489Y3034845D01*
X4127955Y3011311D01*
X4111314Y2982489D01*
X4102700Y2950341D01*
Y2917059D01*
X4111314Y2884911D01*
X4127955Y2856089D01*
X4151489Y2832555D01*
X4180311Y2815914D01*
X4212459Y2807300D01*
X4245741D01*
X4277889Y2815914D01*
X4306711Y2832555D01*
X4330245Y2856089D01*
X4344000Y2879912D01*
X4355672Y2877290D01*
X4356801Y2876684D01*
X4365314Y2844912D01*
X4381955Y2816089D01*
X4405489Y2792555D01*
X4434311Y2775914D01*
X4466459Y2767300D01*
X4499741D01*
X4531889Y2775914D01*
X4560711Y2792555D01*
X4584245Y2816089D01*
X4598000Y2839912D01*
X4610700Y2836509D01*
Y2807300D01*
X4863500D01*
Y3060100D01*
D02*
G37*
G36*
X3988476Y2995300D02*
X3987800D01*
Y2906400D01*
X4076700D01*
Y2907076D01*
X4069776Y2932916D01*
X4056400Y2956084D01*
X4037484Y2975000D01*
X4014316Y2988376D01*
X3988476Y2995300D01*
D02*
G37*
G36*
X3962400D02*
X3961724D01*
X3935884Y2988376D01*
X3912716Y2975000D01*
X3893800Y2956084D01*
X3880424Y2932916D01*
X3873500Y2907076D01*
Y2906400D01*
X3962400D01*
Y2995300D01*
D02*
G37*
G36*
X4076700Y2881000D02*
X3987800D01*
Y2792100D01*
X3988476D01*
X4014316Y2799024D01*
X4037484Y2812400D01*
X4056400Y2831316D01*
X4069776Y2854484D01*
X4076700Y2880324D01*
Y2881000D01*
D02*
G37*
G36*
X3962400D02*
X3873500D01*
Y2880324D01*
X3880424Y2854484D01*
X3893800Y2831316D01*
X3912716Y2812400D01*
X3935884Y2799024D01*
X3961724Y2792100D01*
X3962400D01*
Y2881000D01*
D02*
G37*
G36*
X6142250Y2867550D02*
X6043300D01*
Y2768600D01*
X6142250D01*
Y2867550D01*
D02*
G37*
G36*
X6017900D02*
X5918950D01*
Y2768600D01*
X6017900D01*
Y2867550D01*
D02*
G37*
G36*
X6142250Y2743200D02*
X6030600D01*
X5918950D01*
Y2644250D01*
X6025585D01*
X6027257Y2631550D01*
X6017932Y2629051D01*
X5986818Y2611087D01*
X5961413Y2585682D01*
X5950068Y2566032D01*
X4532388D01*
X4532344Y2566076D01*
X4514056Y2576635D01*
X4493659Y2582100D01*
X4472541D01*
X4452144Y2576635D01*
X4433856Y2566076D01*
X4418924Y2551144D01*
X4408365Y2532856D01*
X4402900Y2512459D01*
Y2491341D01*
X4408365Y2470944D01*
X4418924Y2452656D01*
X4433856Y2437724D01*
X4452144Y2427165D01*
X4472541Y2421700D01*
X4493659D01*
X4514056Y2427165D01*
X4532344Y2437724D01*
X4532388Y2437768D01*
X5950068D01*
X5961413Y2418118D01*
X5986818Y2392713D01*
X5990524Y2390573D01*
X5988867Y2377981D01*
X5977932Y2375051D01*
X5946818Y2357087D01*
X5921413Y2331682D01*
X5910068Y2312032D01*
X4978400D01*
X4953858Y2307151D01*
X4933052Y2293248D01*
X4891703Y2251900D01*
X4891641D01*
X4871244Y2246435D01*
X4852956Y2235876D01*
X4838024Y2220944D01*
X4827465Y2202656D01*
X4822000Y2182259D01*
Y2161141D01*
X4827465Y2140744D01*
X4838024Y2122456D01*
X4852956Y2107524D01*
X4853965Y2099862D01*
X4745117Y1991014D01*
X4742656Y1992435D01*
X4722259Y1997900D01*
X4701141D01*
X4680744Y1992435D01*
X4662456Y1981876D01*
X4647524Y1966944D01*
X4636965Y1948656D01*
X4631500Y1928259D01*
Y1907141D01*
X4636965Y1886744D01*
X4647524Y1868456D01*
X4662456Y1853524D01*
X4680744Y1842965D01*
X4701141Y1837500D01*
X4722259D01*
X4742656Y1842965D01*
X4760944Y1853524D01*
X4760988Y1853568D01*
X4762500D01*
X4774419Y1855938D01*
X4774524Y1855756D01*
X4789456Y1840824D01*
X4807744Y1830265D01*
X4828141Y1824800D01*
X4833603D01*
X5898882Y759522D01*
X5894150Y741864D01*
Y705936D01*
X5903449Y671232D01*
X5921413Y640118D01*
X5946818Y614713D01*
X5977932Y596749D01*
X5988867Y593819D01*
X5990524Y581227D01*
X5986818Y579087D01*
X5965379Y557649D01*
X5378918D01*
X4879633Y1056933D01*
X4863924Y1068987D01*
X4845631Y1076565D01*
X4826000Y1079149D01*
X4527218D01*
X4431949Y1174418D01*
Y1205103D01*
X4436300Y1221341D01*
Y1242459D01*
X4430835Y1262856D01*
X4420276Y1281144D01*
X4405344Y1296076D01*
X4387056Y1306635D01*
X4366659Y1312100D01*
X4345541D01*
X4325144Y1306635D01*
X4306856Y1296076D01*
X4291924Y1281144D01*
X4281365Y1262856D01*
X4275900Y1242459D01*
Y1221341D01*
X4280251Y1205103D01*
Y1143000D01*
X4282835Y1123369D01*
X4290413Y1105076D01*
X4302467Y1089367D01*
X4442166Y949668D01*
X4442167Y949667D01*
X4457876Y937613D01*
X4476169Y930035D01*
X4495800Y927451D01*
X4794582D01*
X4926275Y795758D01*
X4922479Y781593D01*
X4919703Y780849D01*
X4855400D01*
Y797959D01*
X4849935Y818356D01*
X4839376Y836644D01*
X4824444Y851576D01*
X4806156Y862135D01*
X4785759Y867600D01*
X4764641D01*
X4744244Y862135D01*
X4725956Y851576D01*
X4718928Y844548D01*
X4624121D01*
X4615656Y849435D01*
X4595259Y854900D01*
X4574141D01*
X4553744Y849435D01*
X4535456Y838876D01*
X4520524Y823944D01*
X4509965Y805656D01*
X4505164Y787737D01*
X4496999Y784732D01*
X4491800Y784367D01*
X4428682Y847485D01*
X4420276Y862044D01*
X4405344Y876976D01*
X4387056Y887535D01*
X4366659Y893000D01*
X4345541D01*
X4325144Y887535D01*
X4306856Y876976D01*
X4291924Y862044D01*
X4281365Y843756D01*
X4275900Y823359D01*
Y802241D01*
X4281365Y781844D01*
X4291924Y763556D01*
X4306856Y748624D01*
X4321415Y740218D01*
X4410265Y651368D01*
X4410266Y651367D01*
X4425975Y639313D01*
X4444268Y631736D01*
X4463900Y629151D01*
X4463902Y629151D01*
X4902382D01*
X5166067Y365467D01*
X5181776Y353413D01*
X5185741Y351770D01*
X5187158Y337437D01*
X5170374Y320653D01*
X5154210Y296462D01*
X5143076Y269582D01*
X5137400Y241047D01*
Y211953D01*
X5143076Y183417D01*
X5154210Y156538D01*
X5170374Y132347D01*
X5190947Y111774D01*
X5215138Y95610D01*
X5242017Y84476D01*
X5270553Y78800D01*
X5299647D01*
X5328182Y84476D01*
X5355062Y95610D01*
X5379253Y111774D01*
X5399826Y132347D01*
X5415990Y156538D01*
X5427124Y183417D01*
X5432800Y211953D01*
Y241047D01*
X5427124Y269582D01*
X5415990Y296462D01*
X5399826Y320653D01*
X5389928Y330551D01*
X5395189Y343251D01*
X5795982D01*
X5896521Y242712D01*
X5894150Y233864D01*
Y197936D01*
X5903449Y163232D01*
X5921413Y132118D01*
X5946818Y106713D01*
X5977932Y88749D01*
X6012636Y79450D01*
X6048564D01*
X6083268Y88749D01*
X6114382Y106713D01*
X6139787Y132118D01*
X6157751Y163232D01*
X6167050Y197936D01*
Y233864D01*
X6157751Y268568D01*
X6139787Y299682D01*
X6114382Y325087D01*
X6110676Y327227D01*
X6112333Y339819D01*
X6123268Y342749D01*
X6154382Y360713D01*
X6179787Y386118D01*
X6197751Y417232D01*
X6207050Y451936D01*
Y487864D01*
X6197751Y522568D01*
X6179787Y553682D01*
X6154382Y579087D01*
X6123268Y597051D01*
X6112333Y599981D01*
X6110676Y612573D01*
X6114382Y614713D01*
X6139787Y640118D01*
X6157751Y671232D01*
X6167050Y705936D01*
Y741864D01*
X6157751Y776568D01*
X6139787Y807682D01*
X6114382Y833087D01*
X6110676Y835227D01*
X6112333Y847819D01*
X6123268Y850749D01*
X6154382Y868713D01*
X6179787Y894118D01*
X6197751Y925232D01*
X6207050Y959936D01*
Y995864D01*
X6197751Y1030568D01*
X6179787Y1061682D01*
X6154382Y1087087D01*
X6123268Y1105051D01*
X6112333Y1107981D01*
X6110676Y1120573D01*
X6114382Y1122713D01*
X6139787Y1148118D01*
X6157751Y1179232D01*
X6167050Y1213936D01*
Y1249864D01*
X6157751Y1284568D01*
X6139787Y1315682D01*
X6114382Y1341087D01*
X6110676Y1343227D01*
X6112333Y1355819D01*
X6123268Y1358749D01*
X6154382Y1376713D01*
X6179787Y1402118D01*
X6197751Y1433232D01*
X6207050Y1467936D01*
Y1503864D01*
X6197751Y1538568D01*
X6179787Y1569682D01*
X6154382Y1595087D01*
X6123268Y1613051D01*
X6112333Y1615981D01*
X6110676Y1628573D01*
X6114382Y1630713D01*
X6139787Y1656118D01*
X6157751Y1687232D01*
X6167050Y1721936D01*
Y1757864D01*
X6157751Y1792568D01*
X6139787Y1823682D01*
X6114382Y1849087D01*
X6110676Y1851227D01*
X6112333Y1863819D01*
X6123268Y1866749D01*
X6154382Y1884713D01*
X6179787Y1910118D01*
X6197751Y1941232D01*
X6207050Y1975936D01*
Y2011864D01*
X6197751Y2046568D01*
X6179787Y2077682D01*
X6154382Y2103087D01*
X6123268Y2121051D01*
X6112333Y2123981D01*
X6110676Y2136573D01*
X6114382Y2138713D01*
X6139787Y2164118D01*
X6157751Y2195232D01*
X6167050Y2229936D01*
Y2265864D01*
X6157751Y2300568D01*
X6139787Y2331682D01*
X6114382Y2357087D01*
X6110676Y2359227D01*
X6112333Y2371819D01*
X6123268Y2374749D01*
X6154382Y2392713D01*
X6179787Y2418118D01*
X6197751Y2449232D01*
X6207050Y2483936D01*
Y2519864D01*
X6197751Y2554568D01*
X6179787Y2585682D01*
X6154382Y2611087D01*
X6123268Y2629051D01*
X6113943Y2631550D01*
X6115615Y2644250D01*
X6142250D01*
Y2743200D01*
D02*
G37*
G36*
X2874141Y3428400D02*
X2840859D01*
X2808711Y3419786D01*
X2779889Y3403145D01*
X2756355Y3379611D01*
X2739714Y3350789D01*
X2731100Y3318641D01*
Y3285359D01*
X2739714Y3253211D01*
X2756355Y3224389D01*
X2779889Y3200855D01*
X2803712Y3187100D01*
X2801090Y3175428D01*
X2800484Y3174299D01*
X2768712Y3165786D01*
X2739889Y3149145D01*
X2716355Y3125611D01*
X2699714Y3096789D01*
X2691100Y3064641D01*
Y3031359D01*
X2699714Y2999211D01*
X2716355Y2970389D01*
X2739889Y2946855D01*
X2768712Y2930214D01*
X2800859Y2921600D01*
X2834141D01*
X2866289Y2930214D01*
X2895112Y2946855D01*
X2918645Y2970389D01*
X2935286Y2999211D01*
X2943900Y3031359D01*
Y3054712D01*
X2956600Y3059973D01*
X3003335Y3013238D01*
Y1255002D01*
X2998213Y1249880D01*
X2980743Y1219620D01*
X2971700Y1185870D01*
Y1150930D01*
X2980743Y1117180D01*
X2998213Y1086920D01*
X3003335Y1081798D01*
Y755002D01*
X2998213Y749880D01*
X2980743Y719620D01*
X2971700Y685870D01*
Y650930D01*
X2980743Y617180D01*
X2998213Y586920D01*
X3022920Y562214D01*
X3053180Y544743D01*
X3086930Y535700D01*
X3121870D01*
X3155620Y544743D01*
X3185880Y562214D01*
X3210586Y586920D01*
X3228057Y617180D01*
X3237100Y650930D01*
Y685870D01*
X3228057Y719620D01*
X3210586Y749880D01*
X3205465Y755002D01*
Y1081798D01*
X3210586Y1086920D01*
X3228057Y1117180D01*
X3237100Y1150930D01*
Y1185870D01*
X3228057Y1219620D01*
X3210586Y1249880D01*
X3205465Y1255002D01*
Y3055100D01*
X3202021Y3081257D01*
X3191925Y3105632D01*
X3175863Y3126563D01*
X3113225Y3189202D01*
X3118085Y3200935D01*
X3158538D01*
X3315235Y3044238D01*
Y2094400D01*
X3318679Y2068242D01*
X3328775Y2043868D01*
X3344837Y2022937D01*
X3527100Y1840673D01*
Y1840559D01*
X3535714Y1808411D01*
X3552355Y1779589D01*
X3575888Y1756055D01*
X3604711Y1739414D01*
X3636859Y1730800D01*
X3670141D01*
X3702289Y1739414D01*
X3731111Y1756055D01*
X3754645Y1779589D01*
X3771286Y1808411D01*
X3779900Y1840559D01*
Y1873841D01*
X3771286Y1905989D01*
X3754645Y1934811D01*
X3731111Y1958345D01*
X3707288Y1972100D01*
X3709910Y1983771D01*
X3710516Y1984901D01*
X3742288Y1993414D01*
X3771111Y2010055D01*
X3794645Y2033589D01*
X3811286Y2062411D01*
X3819900Y2094559D01*
Y2127841D01*
X3811286Y2159989D01*
X3794645Y2188811D01*
X3771111Y2212345D01*
X3742288Y2228986D01*
X3710141Y2237600D01*
X3676859D01*
X3644711Y2228986D01*
X3615888Y2212345D01*
X3592355Y2188811D01*
X3575714Y2159989D01*
X3567100Y2127841D01*
Y2104488D01*
X3554400Y2099227D01*
X3517365Y2136262D01*
Y3086100D01*
X3513921Y3112257D01*
X3503825Y3136632D01*
X3487763Y3157563D01*
X3271863Y3373463D01*
X3250932Y3389525D01*
X3226557Y3399621D01*
X3200400Y3403065D01*
X2935192D01*
X2935111Y3403145D01*
X2906289Y3419786D01*
X2874141Y3428400D01*
D02*
G37*
G36*
X3795100Y1704800D02*
X3706200D01*
Y1615900D01*
X3795100D01*
Y1704800D01*
D02*
G37*
G36*
X3680800D02*
X3591900D01*
Y1615900D01*
X3680800D01*
Y1704800D01*
D02*
G37*
G36*
X3795100Y1590500D02*
X3706200D01*
Y1501600D01*
X3795100D01*
Y1590500D01*
D02*
G37*
G36*
X3680800D02*
X3591900D01*
Y1501600D01*
X3680800D01*
Y1590500D01*
D02*
G37*
G36*
X2862300Y1276300D02*
X2767100D01*
Y1181100D01*
X2862300D01*
Y1276300D01*
D02*
G37*
G36*
X2741700D02*
X2646500D01*
Y1181100D01*
X2741700D01*
Y1276300D01*
D02*
G37*
G36*
X2862300Y1155700D02*
X2767100D01*
Y1060500D01*
X2862300D01*
Y1155700D01*
D02*
G37*
G36*
X2741700D02*
X2646500D01*
Y1060500D01*
X2741700D01*
Y1155700D01*
D02*
G37*
G36*
X3471870Y1301100D02*
X3436930D01*
X3403180Y1292057D01*
X3372920Y1274586D01*
X3348214Y1249880D01*
X3330743Y1219620D01*
X3321700Y1185870D01*
Y1150930D01*
X3330743Y1117180D01*
X3348214Y1086920D01*
X3372920Y1062214D01*
X3403180Y1044743D01*
X3436930Y1035700D01*
X3471870D01*
X3505620Y1044743D01*
X3535880Y1062214D01*
X3560586Y1086920D01*
X3578057Y1117180D01*
X3587100Y1150930D01*
Y1185870D01*
X3578057Y1219620D01*
X3560586Y1249880D01*
X3535880Y1274586D01*
X3505620Y1292057D01*
X3471870Y1301100D01*
D02*
G37*
G36*
X2768605Y776300D02*
X2767100D01*
Y681100D01*
X2862300D01*
Y682605D01*
X2854947Y710048D01*
X2840741Y734652D01*
X2820652Y754741D01*
X2796048Y768947D01*
X2768605Y776300D01*
D02*
G37*
G36*
X2741700D02*
X2740195D01*
X2712752Y768947D01*
X2688148Y754741D01*
X2668058Y734652D01*
X2653853Y710048D01*
X2646500Y682605D01*
Y681100D01*
X2741700D01*
Y776300D01*
D02*
G37*
G36*
X2862300Y655700D02*
X2767100D01*
Y560500D01*
X2768605D01*
X2796048Y567853D01*
X2820652Y582059D01*
X2840741Y602148D01*
X2854947Y626752D01*
X2862300Y654195D01*
Y655700D01*
D02*
G37*
G36*
X2741700D02*
X2646500D01*
Y654195D01*
X2653853Y626752D01*
X2668058Y602148D01*
X2688148Y582059D01*
X2712752Y567853D01*
X2740195Y560500D01*
X2741700D01*
Y655700D01*
D02*
G37*
G36*
X3471870Y801100D02*
X3436930D01*
X3403180Y792057D01*
X3372920Y774586D01*
X3348214Y749880D01*
X3330743Y719620D01*
X3321700Y685870D01*
Y650930D01*
X3330743Y617180D01*
X3348214Y586920D01*
X3372920Y562214D01*
X3403180Y544743D01*
X3436930Y535700D01*
X3471870D01*
X3505620Y544743D01*
X3535880Y562214D01*
X3560586Y586920D01*
X3578057Y617180D01*
X3587100Y650930D01*
Y685870D01*
X3578057Y719620D01*
X3560586Y749880D01*
X3535880Y774586D01*
X3505620Y792057D01*
X3471870Y801100D01*
D02*
G37*
G36*
X1587500Y4177765D02*
X1561343Y4174321D01*
X1536968Y4164224D01*
X1516037Y4148163D01*
X1499976Y4127232D01*
X1489879Y4102857D01*
X1486435Y4076700D01*
X1489879Y4050543D01*
X1499976Y4026168D01*
X1516037Y4005237D01*
X1985937Y3535337D01*
X2006868Y3519275D01*
X2031243Y3509179D01*
X2057400Y3505735D01*
X2222549D01*
X2247898Y3491100D01*
X2246910Y3481347D01*
X2245750Y3478400D01*
X2242164D01*
X2210220Y3469841D01*
X2181580Y3453305D01*
X2158195Y3429920D01*
X2141659Y3401280D01*
X2133100Y3369336D01*
Y3336264D01*
X2141659Y3304320D01*
X2158195Y3275680D01*
X2181580Y3252295D01*
X2210220Y3235759D01*
X2242164Y3227200D01*
X2245750D01*
X2246910Y3224253D01*
X2247898Y3214500D01*
X2221580Y3199305D01*
X2198195Y3175920D01*
X2181659Y3147280D01*
X2173100Y3115336D01*
Y3082264D01*
X2181659Y3050320D01*
X2198195Y3021680D01*
X2221580Y2998295D01*
X2247898Y2983100D01*
X2246910Y2973347D01*
X2245750Y2970400D01*
X2242164D01*
X2210220Y2961841D01*
X2181580Y2945305D01*
X2158195Y2921920D01*
X2141659Y2893280D01*
X2133100Y2861336D01*
Y2828264D01*
X2141659Y2796320D01*
X2158195Y2767680D01*
X2181580Y2744295D01*
X2210220Y2727759D01*
X2242164Y2719200D01*
X2245750D01*
X2246910Y2716253D01*
X2247898Y2706500D01*
X2221580Y2691305D01*
X2198195Y2667920D01*
X2181659Y2639280D01*
X2173100Y2607336D01*
Y2574264D01*
X2181659Y2542320D01*
X2198195Y2513680D01*
X2221580Y2490295D01*
X2247898Y2475100D01*
X2246910Y2465347D01*
X2245750Y2462400D01*
X2242164D01*
X2210220Y2453841D01*
X2181580Y2437305D01*
X2158195Y2413920D01*
X2141659Y2385280D01*
X2133100Y2353336D01*
Y2320264D01*
X2141659Y2288320D01*
X2158195Y2259680D01*
X2181580Y2236295D01*
X2210220Y2219759D01*
X2242164Y2211200D01*
X2245750D01*
X2246910Y2208253D01*
X2247898Y2198500D01*
X2221580Y2183305D01*
X2198195Y2159920D01*
X2181659Y2131280D01*
X2173100Y2099336D01*
Y2066264D01*
X2181659Y2034320D01*
X2198195Y2005680D01*
X2221580Y1982295D01*
X2247898Y1967100D01*
X2246910Y1957347D01*
X2245750Y1954400D01*
X2242164D01*
X2210220Y1945841D01*
X2181580Y1929305D01*
X2158195Y1905920D01*
X2141659Y1877280D01*
X2133100Y1845336D01*
Y1812264D01*
X2141659Y1780320D01*
X2158195Y1751680D01*
X2181580Y1728295D01*
X2210220Y1711759D01*
X2242164Y1703200D01*
X2245750D01*
X2246910Y1700253D01*
X2247898Y1690500D01*
X2221580Y1675305D01*
X2198195Y1651920D01*
X2181659Y1623280D01*
X2173100Y1591336D01*
Y1558264D01*
X2181659Y1526320D01*
X2198195Y1497680D01*
X2221580Y1474295D01*
X2247898Y1459100D01*
X2246910Y1449347D01*
X2245750Y1446400D01*
X2242164D01*
X2210220Y1437841D01*
X2181580Y1421305D01*
X2158195Y1397920D01*
X2141659Y1369280D01*
X2133100Y1337336D01*
Y1304264D01*
X2141659Y1272320D01*
X2158195Y1243680D01*
X2181580Y1220295D01*
X2210220Y1203759D01*
X2242164Y1195200D01*
X2245750D01*
X2246910Y1192253D01*
X2247898Y1182500D01*
X2221580Y1167305D01*
X2198195Y1143920D01*
X2181659Y1115280D01*
X2173100Y1083336D01*
Y1050264D01*
X2181659Y1018320D01*
X2198195Y989680D01*
X2221580Y966295D01*
X2247898Y951100D01*
X2246910Y941347D01*
X2245750Y938400D01*
X2242164D01*
X2210220Y929841D01*
X2181580Y913305D01*
X2158195Y889920D01*
X2141659Y861280D01*
X2133100Y829336D01*
Y796264D01*
X2141659Y764320D01*
X2158195Y735680D01*
X2181580Y712295D01*
X2210220Y695759D01*
X2242164Y687200D01*
X2245750D01*
X2246910Y684253D01*
X2247898Y674500D01*
X2221580Y659305D01*
X2198195Y635920D01*
X2181659Y607280D01*
X2173100Y575336D01*
Y542264D01*
X2181659Y510320D01*
X2198195Y481680D01*
X2221580Y458295D01*
X2249473Y442191D01*
X2250220Y438387D01*
Y429243D01*
X2247460Y428503D01*
X2217190Y411027D01*
X2192473Y386310D01*
X2174997Y356040D01*
X2165950Y322277D01*
Y287323D01*
X2174997Y253560D01*
X2192473Y223290D01*
X2217190Y198573D01*
X2247460Y181097D01*
X2281223Y172050D01*
X2316177D01*
X2349940Y181097D01*
X2380210Y198573D01*
X2404927Y223290D01*
X2422403Y253560D01*
X2431450Y287323D01*
Y322277D01*
X2422403Y356040D01*
X2404927Y386310D01*
X2380210Y411027D01*
X2349940Y428503D01*
X2347180Y429243D01*
Y438387D01*
X2347927Y442191D01*
X2375820Y458295D01*
X2399205Y481680D01*
X2415741Y510320D01*
X2424300Y542264D01*
Y575336D01*
X2415741Y607280D01*
X2399205Y635920D01*
X2375820Y659305D01*
X2347180Y675841D01*
X2315236Y684400D01*
X2311650D01*
X2310490Y687347D01*
X2309502Y697100D01*
X2335820Y712295D01*
X2359205Y735680D01*
X2375741Y764320D01*
X2384300Y796264D01*
Y829336D01*
X2375741Y861280D01*
X2359205Y889920D01*
X2335820Y913305D01*
X2309502Y928500D01*
X2310490Y938253D01*
X2311650Y941200D01*
X2315236D01*
X2347180Y949759D01*
X2375820Y966295D01*
X2399205Y989680D01*
X2415741Y1018320D01*
X2424300Y1050264D01*
Y1083336D01*
X2415741Y1115280D01*
X2399205Y1143920D01*
X2375820Y1167305D01*
X2347180Y1183841D01*
X2315236Y1192400D01*
X2311650D01*
X2310490Y1195347D01*
X2309502Y1205100D01*
X2335820Y1220295D01*
X2359205Y1243680D01*
X2375741Y1272320D01*
X2384300Y1304264D01*
Y1337336D01*
X2375741Y1369280D01*
X2359205Y1397920D01*
X2335820Y1421305D01*
X2309502Y1436500D01*
X2310490Y1446253D01*
X2311650Y1449200D01*
X2315236D01*
X2347180Y1457759D01*
X2375820Y1474295D01*
X2399205Y1497680D01*
X2415741Y1526320D01*
X2424300Y1558264D01*
Y1591336D01*
X2415741Y1623280D01*
X2399205Y1651920D01*
X2375820Y1675305D01*
X2347180Y1691841D01*
X2315236Y1700400D01*
X2311650D01*
X2310490Y1703347D01*
X2309502Y1713100D01*
X2335820Y1728295D01*
X2359205Y1751680D01*
X2375741Y1780320D01*
X2384300Y1812264D01*
Y1845336D01*
X2375741Y1877280D01*
X2359205Y1905920D01*
X2335820Y1929305D01*
X2309502Y1944500D01*
X2310490Y1954253D01*
X2311650Y1957200D01*
X2315236D01*
X2347180Y1965759D01*
X2375820Y1982295D01*
X2399205Y2005680D01*
X2415741Y2034320D01*
X2424300Y2066264D01*
Y2099336D01*
X2415741Y2131280D01*
X2399205Y2159920D01*
X2375820Y2183305D01*
X2347180Y2199841D01*
X2315236Y2208400D01*
X2311650D01*
X2310490Y2211347D01*
X2309502Y2221100D01*
X2335820Y2236295D01*
X2359205Y2259680D01*
X2375741Y2288320D01*
X2384300Y2320264D01*
Y2353336D01*
X2375741Y2385280D01*
X2359205Y2413920D01*
X2335820Y2437305D01*
X2309502Y2452500D01*
X2310490Y2462253D01*
X2311650Y2465200D01*
X2315236D01*
X2347180Y2473759D01*
X2375820Y2490295D01*
X2399205Y2513680D01*
X2415741Y2542320D01*
X2424300Y2574264D01*
Y2607336D01*
X2415741Y2639280D01*
X2399205Y2667920D01*
X2375820Y2691305D01*
X2347180Y2707841D01*
X2315236Y2716400D01*
X2311650D01*
X2310490Y2719347D01*
X2309502Y2729100D01*
X2335820Y2744295D01*
X2359205Y2767680D01*
X2375741Y2796320D01*
X2384300Y2828264D01*
Y2861336D01*
X2375741Y2893280D01*
X2359205Y2921920D01*
X2335820Y2945305D01*
X2309502Y2960500D01*
X2310490Y2970253D01*
X2311650Y2973200D01*
X2315236D01*
X2347180Y2981759D01*
X2375820Y2998295D01*
X2399205Y3021680D01*
X2415741Y3050320D01*
X2424300Y3082264D01*
Y3115336D01*
X2415741Y3147280D01*
X2399205Y3175920D01*
X2375820Y3199305D01*
X2347180Y3215841D01*
X2315236Y3224400D01*
X2311650D01*
X2310490Y3227347D01*
X2309502Y3237100D01*
X2335820Y3252295D01*
X2359205Y3275680D01*
X2375741Y3304320D01*
X2384300Y3336264D01*
Y3369336D01*
X2375741Y3401280D01*
X2359205Y3429920D01*
X2335820Y3453305D01*
X2309502Y3468500D01*
X2310490Y3478253D01*
X2311650Y3481200D01*
X2315236D01*
X2347180Y3489759D01*
X2375820Y3506295D01*
X2399205Y3529680D01*
X2415741Y3558320D01*
X2424300Y3590264D01*
Y3623336D01*
X2415741Y3655280D01*
X2399205Y3683920D01*
X2375820Y3707305D01*
X2347180Y3723841D01*
X2315236Y3732400D01*
X2282164D01*
X2250220Y3723841D01*
X2222549Y3707865D01*
X2099262D01*
X1658963Y4148163D01*
X1638032Y4164224D01*
X1613657Y4174321D01*
X1587500Y4177765D01*
D02*
G37*
G36*
X791236Y3224400D02*
X758164D01*
X726220Y3215841D01*
X697580Y3199305D01*
X674195Y3175920D01*
X657659Y3147280D01*
X649100Y3115336D01*
Y3082264D01*
X657659Y3050320D01*
X674195Y3021680D01*
X697580Y2998295D01*
X726220Y2981759D01*
X758164Y2973200D01*
X761750D01*
X762910Y2970253D01*
X763898Y2960500D01*
X737580Y2945305D01*
X714195Y2921920D01*
X697659Y2893280D01*
X689100Y2861336D01*
Y2828264D01*
X697659Y2796320D01*
X714195Y2767680D01*
X737580Y2744295D01*
X763898Y2729100D01*
X762910Y2719347D01*
X761750Y2716400D01*
X758164D01*
X726220Y2707841D01*
X697580Y2691305D01*
X674195Y2667920D01*
X657659Y2639280D01*
X649100Y2607336D01*
Y2574264D01*
X657659Y2542320D01*
X674195Y2513680D01*
X697580Y2490295D01*
X726220Y2473759D01*
X758164Y2465200D01*
X761750D01*
X762910Y2462253D01*
X763898Y2452500D01*
X737580Y2437305D01*
X714195Y2413920D01*
X697659Y2385280D01*
X689100Y2353336D01*
Y2320264D01*
X697659Y2288320D01*
X714195Y2259680D01*
X737580Y2236295D01*
X763898Y2221100D01*
X762910Y2211347D01*
X761750Y2208400D01*
X758164D01*
X726220Y2199841D01*
X697580Y2183305D01*
X674195Y2159920D01*
X657659Y2131280D01*
X649100Y2099336D01*
Y2066264D01*
X657659Y2034320D01*
X674195Y2005680D01*
X697580Y1982295D01*
X726220Y1965759D01*
X758164Y1957200D01*
X761750D01*
X762910Y1954253D01*
X763898Y1944500D01*
X737580Y1929305D01*
X714195Y1905920D01*
X697659Y1877280D01*
X689100Y1845336D01*
Y1812264D01*
X697659Y1780320D01*
X714195Y1751680D01*
X737580Y1728295D01*
X763898Y1713100D01*
X762910Y1703347D01*
X761750Y1700400D01*
X758164D01*
X726220Y1691841D01*
X697580Y1675305D01*
X674195Y1651920D01*
X657659Y1623280D01*
X649100Y1591336D01*
Y1558264D01*
X657659Y1526320D01*
X674195Y1497680D01*
X697580Y1474295D01*
X726220Y1457759D01*
X758164Y1449200D01*
X761750D01*
X762910Y1446253D01*
X763898Y1436500D01*
X737580Y1421305D01*
X714195Y1397920D01*
X697659Y1369280D01*
X689100Y1337336D01*
Y1304264D01*
X697659Y1272320D01*
X714195Y1243680D01*
X737580Y1220295D01*
X763898Y1205100D01*
X762910Y1195347D01*
X761750Y1192400D01*
X758164D01*
X726220Y1183841D01*
X697580Y1167305D01*
X674195Y1143920D01*
X657659Y1115280D01*
X649100Y1083336D01*
Y1050264D01*
X657659Y1018320D01*
X674195Y989680D01*
X697580Y966295D01*
X726220Y949759D01*
X758164Y941200D01*
X761750D01*
X762910Y938253D01*
X763898Y928500D01*
X737580Y913305D01*
X714195Y889920D01*
X697659Y861280D01*
X689100Y829336D01*
Y796264D01*
X697659Y764320D01*
X714195Y735680D01*
X737580Y712295D01*
X763898Y697100D01*
X762910Y687347D01*
X761750Y684400D01*
X758164D01*
X726220Y675841D01*
X697580Y659305D01*
X674195Y635920D01*
X657659Y607280D01*
X649100Y575336D01*
Y542264D01*
X657659Y510320D01*
X674195Y481680D01*
X697580Y458295D01*
X725473Y442191D01*
X726220Y438387D01*
Y429243D01*
X723460Y428503D01*
X693190Y411027D01*
X668473Y386310D01*
X650997Y356040D01*
X641950Y322277D01*
Y287323D01*
X650997Y253560D01*
X668473Y223290D01*
X693190Y198573D01*
X723460Y181097D01*
X757223Y172050D01*
X792177D01*
X825940Y181097D01*
X856210Y198573D01*
X880927Y223290D01*
X898403Y253560D01*
X907450Y287323D01*
Y322277D01*
X898403Y356040D01*
X880927Y386310D01*
X856210Y411027D01*
X825940Y428503D01*
X823180Y429243D01*
Y438387D01*
X823927Y442191D01*
X851820Y458295D01*
X875205Y481680D01*
X891741Y510320D01*
X900300Y542264D01*
Y575336D01*
X891741Y607280D01*
X875205Y635920D01*
X851820Y659305D01*
X825502Y674500D01*
X826490Y684253D01*
X827650Y687200D01*
X831236D01*
X863180Y695759D01*
X891820Y712295D01*
X915205Y735680D01*
X931741Y764320D01*
X940300Y796264D01*
Y829336D01*
X931741Y861280D01*
X915205Y889920D01*
X891820Y913305D01*
X863180Y929841D01*
X831236Y938400D01*
X827650D01*
X826490Y941347D01*
X825502Y951100D01*
X851820Y966295D01*
X875205Y989680D01*
X891741Y1018320D01*
X900300Y1050264D01*
Y1083336D01*
X891741Y1115280D01*
X875205Y1143920D01*
X851820Y1167305D01*
X825502Y1182500D01*
X826490Y1192253D01*
X827650Y1195200D01*
X831236D01*
X863180Y1203759D01*
X891820Y1220295D01*
X915205Y1243680D01*
X931741Y1272320D01*
X940300Y1304264D01*
Y1337336D01*
X931741Y1369280D01*
X915205Y1397920D01*
X891820Y1421305D01*
X863180Y1437841D01*
X831236Y1446400D01*
X827650D01*
X826490Y1449347D01*
X825502Y1459100D01*
X851820Y1474295D01*
X875205Y1497680D01*
X891741Y1526320D01*
X900300Y1558264D01*
Y1591336D01*
X891741Y1623280D01*
X875205Y1651920D01*
X851820Y1675305D01*
X825502Y1690500D01*
X826490Y1700253D01*
X827650Y1703200D01*
X831236D01*
X863180Y1711759D01*
X891820Y1728295D01*
X915205Y1751680D01*
X931741Y1780320D01*
X940300Y1812264D01*
Y1845336D01*
X931741Y1877280D01*
X915205Y1905920D01*
X891820Y1929305D01*
X863180Y1945841D01*
X831236Y1954400D01*
X827650D01*
X826490Y1957347D01*
X825502Y1967100D01*
X851820Y1982295D01*
X875205Y2005680D01*
X891741Y2034320D01*
X900300Y2066264D01*
Y2099336D01*
X891741Y2131280D01*
X875205Y2159920D01*
X851820Y2183305D01*
X825502Y2198500D01*
X826490Y2208253D01*
X827650Y2211200D01*
X831236D01*
X863180Y2219759D01*
X891820Y2236295D01*
X915205Y2259680D01*
X931741Y2288320D01*
X940300Y2320264D01*
Y2353336D01*
X931741Y2385280D01*
X915205Y2413920D01*
X891820Y2437305D01*
X863180Y2453841D01*
X831236Y2462400D01*
X827650D01*
X826490Y2465347D01*
X825502Y2475100D01*
X851820Y2490295D01*
X875205Y2513680D01*
X891741Y2542320D01*
X900300Y2574264D01*
Y2607336D01*
X891741Y2639280D01*
X875205Y2667920D01*
X851820Y2691305D01*
X825502Y2706500D01*
X826490Y2716253D01*
X827650Y2719200D01*
X831236D01*
X863180Y2727759D01*
X891820Y2744295D01*
X915205Y2767680D01*
X931741Y2796320D01*
X940300Y2828264D01*
Y2861336D01*
X931741Y2893280D01*
X915205Y2921920D01*
X891820Y2945305D01*
X863180Y2961841D01*
X831236Y2970400D01*
X827650D01*
X826490Y2973347D01*
X825502Y2983100D01*
X851820Y2998295D01*
X875205Y3021680D01*
X891741Y3050320D01*
X900300Y3082264D01*
Y3115336D01*
X891741Y3147280D01*
X875205Y3175920D01*
X851820Y3199305D01*
X823180Y3215841D01*
X791236Y3224400D01*
D02*
G37*
G36*
X4584647Y374200D02*
X4555553D01*
X4527018Y368524D01*
X4500138Y357390D01*
X4475947Y341226D01*
X4455374Y320653D01*
X4439210Y296462D01*
X4428076Y269582D01*
X4422400Y241047D01*
Y211953D01*
X4428076Y183417D01*
X4439210Y156538D01*
X4455374Y132347D01*
X4475947Y111774D01*
X4500138Y95610D01*
X4527018Y84476D01*
X4555553Y78800D01*
X4584647D01*
X4613183Y84476D01*
X4640062Y95610D01*
X4664253Y111774D01*
X4684826Y132347D01*
X4700990Y156538D01*
X4712124Y183417D01*
X4717800Y211953D01*
Y241047D01*
X4712124Y269582D01*
X4700990Y296462D01*
X4684826Y320653D01*
X4664253Y341226D01*
X4640062Y357390D01*
X4613183Y368524D01*
X4584647Y374200D01*
D02*
G37*
%LPD*%
D18*
X3975100Y2893700D02*
X3985126Y2883674D01*
X3312800Y3556000D02*
X3975100Y2893700D01*
X3893527Y3588727D02*
X3898900Y3594100D01*
X3928966D02*
X4254500Y3919634D01*
X3898900Y3594100D02*
X3928966D01*
X3200400Y3302000D02*
X3416300Y3086100D01*
X2857500Y3302000D02*
X3200400D01*
X3104400Y1168400D02*
Y3055100D01*
X2857500Y3302000D02*
X3104400Y3055100D01*
X3416300Y2094400D02*
Y3086100D01*
X3104400Y668400D02*
Y1168400D01*
X3416300Y2094400D02*
X3653500Y1857200D01*
X2817500Y3556000D02*
X3312800D01*
X2633617Y3372117D02*
X2817500Y3556000D01*
X4148779Y2667000D02*
X5941700D01*
X3985126Y2830652D02*
X4148779Y2667000D01*
X3985126Y2830652D02*
Y2883674D01*
X5941700Y2667000D02*
X6030600Y2755900D01*
X2754400Y668400D02*
Y1168400D01*
X2721900Y1200900D02*
X2754400Y1168400D01*
X2633617Y1259479D02*
X2692196Y1200900D01*
X2633617Y1259479D02*
Y3372117D01*
X2692196Y1200900D02*
X2721900D01*
X2057400Y3606800D02*
X2298700D01*
X1587500Y4076700D02*
X2057400Y3606800D01*
D19*
X5325449Y2005919D02*
X5478912Y1852456D01*
X5299882Y2030930D02*
X5324894Y2005919D01*
X5478912Y1852456D02*
X5751168D01*
X5399685Y2021485D02*
X5505214Y1915956D01*
X5324894Y2005919D02*
X5325449D01*
X5293956Y2030930D02*
X5299882D01*
X5505214Y1915956D02*
X5777470D01*
X3973966Y4368668D02*
Y4370375D01*
Y4660900D01*
X3910466Y4370375D02*
Y4660900D01*
Y4338191D02*
Y4370375D01*
X3973966Y4660900D02*
Y4662666D01*
X3910466Y4660900D02*
Y4679234D01*
Y4338191D02*
X3961336Y4287321D01*
X4064000Y4343400D02*
Y4368800D01*
X3961336Y4287321D02*
X4007272D01*
X4025900Y4305300D02*
X4064000Y4343400D01*
X4007272Y4287321D02*
X4025900Y4305300D01*
X3823500Y4766200D02*
X3910466Y4679234D01*
X3973966Y4662666D02*
X4057500Y4746200D01*
X3823500Y4766200D02*
Y4786200D01*
X4057500Y4746200D02*
X4077500D01*
X5917099Y1776327D02*
X5928764Y1764662D01*
X5777470Y1915956D02*
X5825463Y1867963D01*
X5917099Y1776327D01*
X5928764Y1764662D02*
X6005838D01*
X6030600Y1739900D01*
X5976462Y1558638D02*
Y1627162D01*
X5930282Y1454150D02*
X6009131Y1375300D01*
X5872197Y1731426D02*
X5976462Y1627162D01*
X5930282Y1512458D02*
X5976462Y1558638D01*
X6009131Y1253369D02*
Y1375300D01*
Y1253369D02*
X6030600Y1231900D01*
X5751168Y1852456D02*
X5780561Y1823062D01*
X5872197Y1731426D01*
X5930282Y1454150D02*
Y1512458D01*
X4584700Y774700D02*
X4756574D01*
X4769274Y787400D01*
X4775200D01*
D20*
X4991100Y2146300D02*
X5536347D01*
X4940300Y1943100D02*
X5905500Y977900D01*
X6070600D01*
X6025200Y723900D02*
X6030600D01*
X4844100Y1905000D02*
X6025200Y723900D01*
X4838700Y1905000D02*
X4844100D01*
X4711700Y1917700D02*
X4762500D01*
X4991100Y2146300D01*
X4902200Y2171700D02*
X4978400Y2247900D01*
X6030600D01*
X5536347Y2146300D02*
X5688747Y1993900D01*
X6070600D01*
X4483100Y2501900D02*
X6070600D01*
D21*
X5180526Y1954726D02*
X5182674D01*
X5649587Y1487813D01*
X5738487D01*
X5740400Y1485900D01*
X4356100Y1143000D02*
Y1231900D01*
Y1143000D02*
X4495800Y1003300D01*
X4826000D01*
X5347500Y481800D02*
X6058700D01*
X4826000Y1003300D02*
X5347500Y481800D01*
X6058700D02*
X6070600Y469900D01*
X4356100Y812800D02*
X4463900Y705000D01*
X4946500D01*
X4940821Y697979D02*
X5219700Y419100D01*
X5827400D01*
X6030600Y215900D01*
D22*
X3693500Y1603200D02*
D03*
X2817500Y3556000D02*
D03*
D23*
X3653500Y1857200D02*
D03*
X3693500Y2111200D02*
D03*
X3569500Y4746200D02*
D03*
X4077500D02*
D03*
X3823500Y4786200D02*
D03*
X3975100Y2893700D02*
D03*
X4483100D02*
D03*
X4229100Y2933700D02*
D03*
X2817500Y3048000D02*
D03*
X2857500Y3302000D02*
D03*
D24*
X4331500Y4786200D02*
D03*
X4737100Y2933700D02*
D03*
D25*
X4025900Y228600D02*
D03*
X241300Y292100D02*
D03*
Y4660900D02*
D03*
X5981700D02*
D03*
D26*
X4570100Y226500D02*
D03*
X5285100D02*
D03*
D27*
X6070600Y469900D02*
D03*
Y977900D02*
D03*
Y1485900D02*
D03*
X6030600Y2247900D02*
D03*
Y215900D02*
D03*
Y723900D02*
D03*
Y1231900D02*
D03*
Y1739900D02*
D03*
X6070600Y1993900D02*
D03*
Y2501900D02*
D03*
D28*
X6030600Y2755900D02*
D03*
D29*
X4762500Y3695700D02*
D03*
X5658353Y3695699D02*
D03*
D30*
X4762500Y3949700D02*
D03*
X5658353Y3949699D02*
D03*
D31*
X2754400Y1168400D02*
D03*
D32*
Y668400D02*
D03*
X3104400Y1168400D02*
D03*
Y668400D02*
D03*
X3454400Y1168400D02*
D03*
Y668400D02*
D03*
D33*
X2298700Y4368800D02*
D03*
X774700D02*
D03*
X2298700Y304800D02*
D03*
X774700D02*
D03*
D34*
X2298700Y4114800D02*
D03*
X2258700Y3860800D02*
D03*
X2298700Y3606800D02*
D03*
X2258700Y3352800D02*
D03*
X2298700Y3098800D02*
D03*
X2258700Y2844800D02*
D03*
X2298700Y2590800D02*
D03*
X2258700Y2336800D02*
D03*
X2298700Y2082800D02*
D03*
X2258700Y1828800D02*
D03*
X2298700Y1574800D02*
D03*
X2258700Y1320800D02*
D03*
X2298700Y1066800D02*
D03*
X2258700Y812800D02*
D03*
X2298700Y558800D02*
D03*
X774700D02*
D03*
X814700Y812800D02*
D03*
X774700Y1066800D02*
D03*
X814700Y1320800D02*
D03*
X774700Y1574800D02*
D03*
X814700Y1828800D02*
D03*
X774700Y2082800D02*
D03*
X814700Y2336800D02*
D03*
X774700Y2590800D02*
D03*
X814700Y2844800D02*
D03*
X774700Y3098800D02*
D03*
X814700Y3352800D02*
D03*
X774700Y3606800D02*
D03*
X814700Y3860800D02*
D03*
D35*
X774700Y4114800D02*
D03*
D36*
X5399685Y2021485D02*
D03*
X5293956Y2030930D02*
D03*
X3974968Y4368668D02*
D03*
X4064000Y4368800D02*
D03*
X4254500Y3949700D02*
D03*
X3893527Y3588727D02*
D03*
X5180526Y1954726D02*
D03*
X4838700Y1905000D02*
D03*
X4940300Y1943100D02*
D03*
X4902200Y2171700D02*
D03*
X4711700Y1917700D02*
D03*
X4483100Y2501900D02*
D03*
X5740400Y1485900D02*
D03*
X4356100Y1231900D02*
D03*
Y812800D02*
D03*
X4584700Y774700D02*
D03*
X4946500Y705000D02*
D03*
X4775200Y787400D02*
D03*
X1587500Y4076700D02*
D03*
%TF.MD5,ad4aa5e4b727103c405d00d6bb8c090b*%
M02*
