%TF.GenerationSoftware,Altium Limited,Altium Designer,24.0.1 (36)*%
G04 Layer_Color=2752767*
%FSLAX45Y45*%
%MOMM*%
%TF.SameCoordinates,87475131-42DB-44E4-9C0F-69BDD36FC7AA*%
%TF.FilePolarity,Positive*%
%TF.FileFunction,Drawing*%
%TF.Part,Single*%
G01*
G75*
%TA.AperFunction,NonConductor*%
%ADD41C,0.12700*%
%ADD75C,0.16933*%
D41*
X3975100Y177800D02*
Y279400D01*
X4076700D01*
Y177800D01*
X3975100D01*
X4544700Y201100D02*
Y175700D01*
X4595500D01*
Y201100D01*
X4620900D01*
Y251900D01*
X4595500D01*
Y277300D01*
X4544700D01*
Y251900D01*
X4519300D01*
Y201100D01*
X4544700D01*
X5259700D02*
Y175700D01*
X5310500D01*
Y201100D01*
X5335900D01*
Y251900D01*
X5310500D01*
Y277300D01*
X5259700D01*
Y251900D01*
X5234300D01*
Y201100D01*
X5259700D01*
X6019800Y419100D02*
X6045200D01*
X6070600Y444500D01*
X6096000Y419100D01*
X6121400D01*
Y444500D01*
X6096000Y469900D01*
X6121400Y495300D01*
Y520700D01*
X6096000D01*
X6070600Y495300D01*
X6045200Y520700D01*
X6019800D01*
Y495300D01*
X6045200Y469900D01*
X6019800Y444500D01*
Y419100D01*
Y927100D02*
X6045200D01*
X6070600Y952500D01*
X6096000Y927100D01*
X6121400D01*
Y952500D01*
X6096000Y977900D01*
X6121400Y1003300D01*
Y1028700D01*
X6096000D01*
X6070600Y1003300D01*
X6045200Y1028700D01*
X6019800D01*
Y1003300D01*
X6045200Y977900D01*
X6019800Y952500D01*
Y927100D01*
Y1435100D02*
X6045200D01*
X6070600Y1460500D01*
X6096000Y1435100D01*
X6121400D01*
Y1460500D01*
X6096000Y1485900D01*
X6121400Y1511300D01*
Y1536700D01*
X6096000D01*
X6070600Y1511300D01*
X6045200Y1536700D01*
X6019800D01*
Y1511300D01*
X6045200Y1485900D01*
X6019800Y1460500D01*
Y1435100D01*
X5979800Y2197100D02*
X6005200D01*
X6030600Y2222500D01*
X6056000Y2197100D01*
X6081400D01*
Y2222500D01*
X6056000Y2247900D01*
X6081400Y2273300D01*
Y2298700D01*
X6056000D01*
X6030600Y2273300D01*
X6005200Y2298700D01*
X5979800D01*
Y2273300D01*
X6005200Y2247900D01*
X5979800Y2222500D01*
Y2197100D01*
Y2705100D02*
X6005200D01*
X6030600Y2730500D01*
X6056000Y2705100D01*
X6081400D01*
Y2730500D01*
X6056000Y2755900D01*
X6081400Y2781300D01*
Y2806700D01*
X6056000D01*
X6030600Y2781300D01*
X6005200Y2806700D01*
X5979800D01*
Y2781300D01*
X6005200Y2755900D01*
X5979800Y2730500D01*
Y2705100D01*
Y165100D02*
X6005200D01*
X6030600Y190500D01*
X6056000Y165100D01*
X6081400D01*
Y190500D01*
X6056000Y215900D01*
X6081400Y241300D01*
Y266700D01*
X6056000D01*
X6030600Y241300D01*
X6005200Y266700D01*
X5979800D01*
Y241300D01*
X6005200Y215900D01*
X5979800Y190500D01*
Y165100D01*
Y673100D02*
X6005200D01*
X6030600Y698500D01*
X6056000Y673100D01*
X6081400D01*
Y698500D01*
X6056000Y723900D01*
X6081400Y749300D01*
Y774700D01*
X6056000D01*
X6030600Y749300D01*
X6005200Y774700D01*
X5979800D01*
Y749300D01*
X6005200Y723900D01*
X5979800Y698500D01*
Y673100D01*
Y1181100D02*
X6005200D01*
X6030600Y1206500D01*
X6056000Y1181100D01*
X6081400D01*
Y1206500D01*
X6056000Y1231900D01*
X6081400Y1257300D01*
Y1282700D01*
X6056000D01*
X6030600Y1257300D01*
X6005200Y1282700D01*
X5979800D01*
Y1257300D01*
X6005200Y1231900D01*
X5979800Y1206500D01*
Y1181100D01*
Y1689100D02*
X6005200D01*
X6030600Y1714500D01*
X6056000Y1689100D01*
X6081400D01*
Y1714500D01*
X6056000Y1739900D01*
X6081400Y1765300D01*
Y1790700D01*
X6056000D01*
X6030600Y1765300D01*
X6005200Y1790700D01*
X5979800D01*
Y1765300D01*
X6005200Y1739900D01*
X5979800Y1714500D01*
Y1689100D01*
X6019800Y1943100D02*
X6045200D01*
X6070600Y1968500D01*
X6096000Y1943100D01*
X6121400D01*
Y1968500D01*
X6096000Y1993900D01*
X6121400Y2019300D01*
Y2044700D01*
X6096000D01*
X6070600Y2019300D01*
X6045200Y2044700D01*
X6019800D01*
Y2019300D01*
X6045200Y1993900D01*
X6019800Y1968500D01*
Y1943100D01*
Y2451100D02*
X6045200D01*
X6070600Y2476500D01*
X6096000Y2451100D01*
X6121400D01*
Y2476500D01*
X6096000Y2501900D01*
X6121400Y2527300D01*
Y2552700D01*
X6096000D01*
X6070600Y2527300D01*
X6045200Y2552700D01*
X6019800D01*
Y2527300D01*
X6045200Y2501900D01*
X6019800Y2476500D01*
Y2451100D01*
X4711700Y3695700D02*
X4762500Y3746500D01*
X4813300Y3695700D01*
X4762500Y3644900D01*
X4711700Y3695700D01*
Y3949700D02*
X4762500Y4000500D01*
X4813300Y3949700D01*
X4762500Y3898900D01*
X4711700Y3949700D01*
X5607553Y3695699D02*
X5658353Y3746499D01*
X5709153Y3695699D01*
X5658353Y3644899D01*
X5607553Y3695699D01*
Y3949699D02*
X5658353Y4000499D01*
X5709153Y3949699D01*
X5658353Y3898899D01*
X5607553Y3949699D01*
X190500Y241300D02*
Y342900D01*
X292100D01*
Y241300D01*
X190500D01*
X2754400Y1117600D02*
X2703600Y1219200D01*
X2805200D01*
X2754400Y1117600D01*
Y617600D02*
X2703600Y719200D01*
X2805200D01*
X2754400Y617600D01*
X3104400Y1117600D02*
X3053600Y1219200D01*
X3155200D01*
X3104400Y1117600D01*
Y617600D02*
X3053600Y719200D01*
X3155200D01*
X3104400Y617600D01*
X3454400Y1117600D02*
X3403600Y1219200D01*
X3505200D01*
X3454400Y1117600D01*
Y617600D02*
X3403600Y719200D01*
X3505200D01*
X3454400Y617600D01*
X2298700Y4318000D02*
X2324100Y4343400D01*
X2349500D01*
X2324100Y4368800D01*
X2349500Y4394200D01*
X2324100D01*
X2298700Y4419600D01*
X2273300Y4394200D01*
X2247900D01*
X2273300Y4368800D01*
X2247900Y4343400D01*
X2273300D01*
X2298700Y4318000D01*
X774700D02*
X800100Y4343400D01*
X825500D01*
X800100Y4368800D01*
X825500Y4394200D01*
X800100D01*
X774700Y4419600D01*
X749300Y4394200D01*
X723900D01*
X749300Y4368800D01*
X723900Y4343400D01*
X749300D01*
X774700Y4318000D01*
X2298700Y254000D02*
X2324100Y279400D01*
X2349500D01*
X2324100Y304800D01*
X2349500Y330200D01*
X2324100D01*
X2298700Y355600D01*
X2273300Y330200D01*
X2247900D01*
X2273300Y304800D01*
X2247900Y279400D01*
X2273300D01*
X2298700Y254000D01*
X774700D02*
X800100Y279400D01*
X825500D01*
X800100Y304800D01*
X825500Y330200D01*
X800100D01*
X774700Y355600D01*
X749300Y330200D01*
X723900D01*
X749300Y304800D01*
X723900Y279400D01*
X749300D01*
X774700Y254000D01*
X190500Y4610100D02*
Y4711700D01*
X292100D01*
Y4610100D01*
X190500D01*
X5930900D02*
Y4711700D01*
X6032500D01*
Y4610100D01*
X5930900D01*
X5348885Y1970685D02*
X5374285Y2021485D01*
X5348885Y2072285D01*
X5399685Y2046885D01*
X5450485Y2072285D01*
X5425085Y2021485D01*
X5450485Y1970685D01*
X5399685Y1996085D01*
X5348885Y1970685D01*
X5243156Y1980130D02*
X5268556Y2030930D01*
X5243156Y2081730D01*
X5293956Y2056330D01*
X5344756Y2081730D01*
X5319356Y2030930D01*
X5344756Y1980130D01*
X5293956Y2005530D01*
X5243156Y1980130D01*
X3924168Y4317868D02*
X3949568Y4368668D01*
X3924168Y4419468D01*
X3974968Y4394068D01*
X4025768Y4419468D01*
X4000368Y4368668D01*
X4025768Y4317868D01*
X3974968Y4343268D01*
X3924168Y4317868D01*
X4013200Y4318000D02*
X4038600Y4368800D01*
X4013200Y4419600D01*
X4064000Y4394200D01*
X4114800Y4419600D01*
X4089400Y4368800D01*
X4114800Y4318000D01*
X4064000Y4343400D01*
X4013200Y4318000D01*
X4203700Y3898900D02*
X4229100Y3949700D01*
X4203700Y4000500D01*
X4254500Y3975100D01*
X4305300Y4000500D01*
X4279900Y3949700D01*
X4305300Y3898900D01*
X4254500Y3924300D01*
X4203700Y3898900D01*
X3842727Y3537927D02*
X3868127Y3588727D01*
X3842727Y3639527D01*
X3893527Y3614127D01*
X3944327Y3639527D01*
X3918927Y3588727D01*
X3944327Y3537927D01*
X3893527Y3563327D01*
X3842727Y3537927D01*
X5129726Y1903926D02*
X5155126Y1954726D01*
X5129726Y2005526D01*
X5180526Y1980126D01*
X5231326Y2005526D01*
X5205926Y1954726D01*
X5231326Y1903926D01*
X5180526Y1929326D01*
X5129726Y1903926D01*
X4787900Y1854200D02*
X4813300Y1905000D01*
X4787900Y1955800D01*
X4838700Y1930400D01*
X4889500Y1955800D01*
X4864100Y1905000D01*
X4889500Y1854200D01*
X4838700Y1879600D01*
X4787900Y1854200D01*
X4889500Y1892300D02*
X4914900Y1943100D01*
X4889500Y1993900D01*
X4940300Y1968500D01*
X4991100Y1993900D01*
X4965700Y1943100D01*
X4991100Y1892300D01*
X4940300Y1917700D01*
X4889500Y1892300D01*
X4851400Y2120900D02*
X4876800Y2171700D01*
X4851400Y2222500D01*
X4902200Y2197100D01*
X4953000Y2222500D01*
X4927600Y2171700D01*
X4953000Y2120900D01*
X4902200Y2146300D01*
X4851400Y2120900D01*
X4660900Y1866900D02*
X4686300Y1917700D01*
X4660900Y1968500D01*
X4711700Y1943100D01*
X4762500Y1968500D01*
X4737100Y1917700D01*
X4762500Y1866900D01*
X4711700Y1892300D01*
X4660900Y1866900D01*
X4432300Y2451100D02*
X4457700Y2501900D01*
X4432300Y2552700D01*
X4483100Y2527300D01*
X4533900Y2552700D01*
X4508500Y2501900D01*
X4533900Y2451100D01*
X4483100Y2476500D01*
X4432300Y2451100D01*
X5689600Y1435100D02*
X5715000Y1485900D01*
X5689600Y1536700D01*
X5740400Y1511300D01*
X5791200Y1536700D01*
X5765800Y1485900D01*
X5791200Y1435100D01*
X5740400Y1460500D01*
X5689600Y1435100D01*
X4305300Y1181100D02*
X4330700Y1231900D01*
X4305300Y1282700D01*
X4356100Y1257300D01*
X4406900Y1282700D01*
X4381500Y1231900D01*
X4406900Y1181100D01*
X4356100Y1206500D01*
X4305300Y1181100D01*
Y762000D02*
X4330700Y812800D01*
X4305300Y863600D01*
X4356100Y838200D01*
X4406900Y863600D01*
X4381500Y812800D01*
X4406900Y762000D01*
X4356100Y787400D01*
X4305300Y762000D01*
X4533900Y723900D02*
X4559300Y774700D01*
X4533900Y825500D01*
X4584700Y800100D01*
X4635500Y825500D01*
X4610100Y774700D01*
X4635500Y723900D01*
X4584700Y749300D01*
X4533900Y723900D01*
X4895700Y654200D02*
X4921100Y705000D01*
X4895700Y755800D01*
X4946500Y730400D01*
X4997300Y755800D01*
X4971900Y705000D01*
X4997300Y654200D01*
X4946500Y679600D01*
X4895700Y654200D01*
X4724400Y736600D02*
X4749800Y787400D01*
X4724400Y838200D01*
X4775200Y812800D01*
X4826000Y838200D01*
X4800600Y787400D01*
X4826000Y736600D01*
X4775200Y762000D01*
X4724400Y736600D01*
X1536700Y4025900D02*
X1562100Y4076700D01*
X1536700Y4127500D01*
X1587500Y4102100D01*
X1638300Y4127500D01*
X1612900Y4076700D01*
X1638300Y4025900D01*
X1587500Y4051300D01*
X1536700Y4025900D01*
D75*
X3744300Y1603200D02*
G03*
X3744300Y1603200I-50800J0D01*
G01*
X3704300Y1857200D02*
G03*
X3704300Y1857200I-50800J0D01*
G01*
X3744300Y2111200D02*
G03*
X3744300Y2111200I-50800J0D01*
G01*
X3620300Y4746200D02*
G03*
X3620300Y4746200I-50800J0D01*
G01*
X4382300Y4786200D02*
G03*
X4382300Y4786200I-50800J0D01*
G01*
X4128300Y4746200D02*
G03*
X4128300Y4746200I-50800J0D01*
G01*
X3874300Y4786200D02*
G03*
X3874300Y4786200I-50800J0D01*
G01*
X4025900Y2893700D02*
G03*
X4025900Y2893700I-50800J0D01*
G01*
X4787900Y2933700D02*
G03*
X4787900Y2933700I-50800J0D01*
G01*
X4533900Y2893700D02*
G03*
X4533900Y2893700I-50800J0D01*
G01*
X4279900Y2933700D02*
G03*
X4279900Y2933700I-50800J0D01*
G01*
X2868300Y3048000D02*
G03*
X2868300Y3048000I-50800J0D01*
G01*
X2908300Y3302000D02*
G03*
X2908300Y3302000I-50800J0D01*
G01*
X2868300Y3556000D02*
G03*
X2868300Y3556000I-50800J0D01*
G01*
X2349500Y4114800D02*
G03*
X2349500Y4114800I-50800J0D01*
G01*
X2309500Y3860800D02*
G03*
X2309500Y3860800I-50800J0D01*
G01*
X2349500Y3606800D02*
G03*
X2349500Y3606800I-50800J0D01*
G01*
X2309500Y3352800D02*
G03*
X2309500Y3352800I-50800J0D01*
G01*
X2349500Y3098800D02*
G03*
X2349500Y3098800I-50800J0D01*
G01*
X2309500Y2844800D02*
G03*
X2309500Y2844800I-50800J0D01*
G01*
X2349500Y2590800D02*
G03*
X2349500Y2590800I-50800J0D01*
G01*
X2309500Y2336800D02*
G03*
X2309500Y2336800I-50800J0D01*
G01*
X2349500Y2082800D02*
G03*
X2349500Y2082800I-50800J0D01*
G01*
X2309500Y1828800D02*
G03*
X2309500Y1828800I-50800J0D01*
G01*
X2349500Y1574800D02*
G03*
X2349500Y1574800I-50800J0D01*
G01*
X2309500Y1320800D02*
G03*
X2309500Y1320800I-50800J0D01*
G01*
X2349500Y1066800D02*
G03*
X2349500Y1066800I-50800J0D01*
G01*
X2309500Y812800D02*
G03*
X2309500Y812800I-50800J0D01*
G01*
X2349500Y558800D02*
G03*
X2349500Y558800I-50800J0D01*
G01*
X825500D02*
G03*
X825500Y558800I-50800J0D01*
G01*
X865500Y812800D02*
G03*
X865500Y812800I-50800J0D01*
G01*
X825500Y1066800D02*
G03*
X825500Y1066800I-50800J0D01*
G01*
X865500Y1320800D02*
G03*
X865500Y1320800I-50800J0D01*
G01*
X825500Y1574800D02*
G03*
X825500Y1574800I-50800J0D01*
G01*
X865500Y1828800D02*
G03*
X865500Y1828800I-50800J0D01*
G01*
X825500Y2082800D02*
G03*
X825500Y2082800I-50800J0D01*
G01*
X865500Y2336800D02*
G03*
X865500Y2336800I-50800J0D01*
G01*
X825500Y2590800D02*
G03*
X825500Y2590800I-50800J0D01*
G01*
X865500Y2844800D02*
G03*
X865500Y2844800I-50800J0D01*
G01*
X825500Y3098800D02*
G03*
X825500Y3098800I-50800J0D01*
G01*
X865500Y3352800D02*
G03*
X865500Y3352800I-50800J0D01*
G01*
X825500Y3606800D02*
G03*
X825500Y3606800I-50800J0D01*
G01*
X865500Y3860800D02*
G03*
X865500Y3860800I-50800J0D01*
G01*
X825500Y4114800D02*
G03*
X825500Y4114800I-50800J0D01*
G01*
%TF.MD5,41a9ae8a6b72e94d6efbd4051912fecb*%
M02*
