M48
;Layer_Color=9474304
;FILE_FORMAT=4:4
METRIC,TZ
;TYPE=PLATED
T01F00S00C0.3000
T02F00S00C0.7000
T03F00S00C1.0000
T04F00S00C1.1000
T05F00S00C1.1500
T06F00S00C1.3000
T07F00S00C3.0000
%
T01
X435610Y81280
X458470Y77470
X477520Y78740
X494650Y70500
X435610Y123190
X574040Y148590
X539968Y202148
X529396Y203093
X518053Y195473
X494030Y194310
X483870Y190500
X471170Y191770
X490220Y217170
X448310Y250190
X425450Y394970
X406400Y436880
X397497Y436867
X389353Y358873
X158750Y407670
T02
X565835Y369570
Y394970
X476250Y394970
Y369570
T03
X77470Y55880
X81470Y81280
X77470Y106680
X81470Y132080
X225870
X229870Y106680
X225870Y81280
X229870Y55880
Y157480
X225870Y182880
X229870Y208280
X225870Y233680
X229870Y259080
X225870Y284480
X229870Y309880
X225870Y335280
X229870Y360680
X225870Y386080
X229870Y411480
X281750Y355600
X285750Y330200
X281750Y304800
X397510Y289370
X422910Y293370
X448310Y289370
X473710Y293370
X369350Y211120
X365350Y185720
X369350Y160320
X356950Y474620
X382350Y478620
X407750Y474620
X433150Y478620
X77470Y411480
X81470Y386080
X77470Y360680
X81470Y335280
X77470Y309880
X81470Y284480
X77470Y259080
X81470Y233680
X77470Y208280
X81470Y182880
X77470Y157480
T04
X275440Y66840
X310440
X345440
Y116840
X310440
X275440
T05
X603060Y21590
X607060Y46990
X603060Y72390
X607060Y97790
X603060Y123190
X607060Y148590
X603060Y173990
X607060Y199390
X603060Y224790
X607060Y250190
X603060Y275590
T06
X457010Y22650
X528510
T07
X24130Y29210
X402590Y22860
X598170Y466090
X24130
M30
