%TF.GenerationSoftware,Altium Limited,Altium Designer,24.0.1 (36)*%
G04 Layer_Color=8421504*
%FSLAX45Y45*%
%MOMM*%
%TF.SameCoordinates,87475131-42DB-44E4-9C0F-69BDD36FC7AA*%
%TF.FilePolarity,Positive*%
%TF.FileFunction,Paste,Top*%
%TF.Part,Single*%
G01*
G75*
%TA.AperFunction,SMDPad,CuDef*%
%ADD10R,1.70000X1.10000*%
%ADD11R,1.80000X1.15000*%
%ADD12R,0.75000X0.94000*%
%ADD13R,1.15000X1.80000*%
%TA.AperFunction,ConnectorPad*%
%ADD14R,0.40000X1.50000*%
%TA.AperFunction,SMDPad,CuDef*%
%ADD15R,1.70000X1.15000*%
%ADD16R,0.45000X1.70000*%
%ADD17R,1.60000X2.50000*%
D10*
X3911600Y490000D02*
D03*
Y780000D02*
D03*
X368300Y3104100D02*
D03*
Y2814100D02*
D03*
D11*
X4175292Y1257812D02*
D03*
Y1557812D02*
D03*
X4191000Y944900D02*
D03*
Y629900D02*
D03*
D12*
X5086500Y812800D02*
D03*
X4946500D02*
D03*
D13*
X4404500Y3263900D02*
D03*
X4104500D02*
D03*
D14*
X4797600Y315500D02*
D03*
X4862600D02*
D03*
X4927600D02*
D03*
X4992600D02*
D03*
X5057600D02*
D03*
D15*
X5207000Y3441400D02*
D03*
Y3721400D02*
D03*
X5658353Y3060400D02*
D03*
Y3340400D02*
D03*
D16*
X5439000Y1747000D02*
D03*
X5374000D02*
D03*
X5309000D02*
D03*
X5244000D02*
D03*
X5179000D02*
D03*
X5114000D02*
D03*
X5049000D02*
D03*
X4984000D02*
D03*
X4919000D02*
D03*
X4854000D02*
D03*
X4789000D02*
D03*
X4724000D02*
D03*
X4659000D02*
D03*
X4594000D02*
D03*
Y1047000D02*
D03*
X4659000D02*
D03*
X4724000D02*
D03*
X4789000D02*
D03*
X4854000D02*
D03*
X4919000D02*
D03*
X4984000D02*
D03*
X5049000D02*
D03*
X5114000D02*
D03*
X5179000D02*
D03*
X5244000D02*
D03*
X5309000D02*
D03*
X5374000D02*
D03*
X5439000D02*
D03*
D17*
X2844800Y4277100D02*
D03*
Y3927100D02*
D03*
%TF.MD5,9056a3742340ba1b73890b568480274d*%
M02*
