%TF.GenerationSoftware,Altium Limited,Altium Designer,24.0.1 (36)*%
G04 Layer_Color=255*
%FSLAX45Y45*%
%MOMM*%
%TF.SameCoordinates,87475131-42DB-44E4-9C0F-69BDD36FC7AA*%
%TF.FilePolarity,Positive*%
%TF.FileFunction,Pads,Bot*%
%TF.Part,Single*%
G01*
G75*
%TA.AperFunction,ComponentPad*%
%ADD22R,1.52400X1.52400*%
%ADD23C,1.52400*%
%ADD24R,1.52400X1.52400*%
%ADD25C,1.50000*%
%ADD26C,1.95000*%
%ADD27C,1.72500*%
%ADD28R,1.72500X1.72500*%
%ADD29R,1.20000X1.20000*%
%ADD30C,1.20000*%
%ADD31R,1.65000X1.65000*%
%ADD32C,1.65000*%
%ADD33C,1.65100*%
%ADD34C,1.50800*%
%ADD35R,1.50800X1.50800*%
D22*
X3693500Y1603200D02*
D03*
X2817500Y3556000D02*
D03*
D23*
X3653500Y1857200D02*
D03*
X3693500Y2111200D02*
D03*
X3569500Y4746200D02*
D03*
X4077500D02*
D03*
X3823500Y4786200D02*
D03*
X3975100Y2893700D02*
D03*
X4483100D02*
D03*
X4229100Y2933700D02*
D03*
X2817500Y3048000D02*
D03*
X2857500Y3302000D02*
D03*
D24*
X4331500Y4786200D02*
D03*
X4737100Y2933700D02*
D03*
D25*
X4025900Y228600D02*
D03*
X241300Y292100D02*
D03*
Y4660900D02*
D03*
X5981700D02*
D03*
D26*
X4570100Y226500D02*
D03*
X5285100D02*
D03*
D27*
X6070600Y469900D02*
D03*
Y977900D02*
D03*
Y1485900D02*
D03*
X6030600Y2247900D02*
D03*
Y215900D02*
D03*
Y723900D02*
D03*
Y1231900D02*
D03*
Y1739900D02*
D03*
X6070600Y1993900D02*
D03*
Y2501900D02*
D03*
D28*
X6030600Y2755900D02*
D03*
D29*
X4762500Y3695700D02*
D03*
X5658353Y3695699D02*
D03*
D30*
X4762500Y3949700D02*
D03*
X5658353Y3949699D02*
D03*
D31*
X2754400Y1168400D02*
D03*
D32*
Y668400D02*
D03*
X3104400Y1168400D02*
D03*
Y668400D02*
D03*
X3454400Y1168400D02*
D03*
Y668400D02*
D03*
D33*
X2298700Y4368800D02*
D03*
X774700D02*
D03*
X2298700Y304800D02*
D03*
X774700D02*
D03*
D34*
X2298700Y4114800D02*
D03*
X2258700Y3860800D02*
D03*
X2298700Y3606800D02*
D03*
X2258700Y3352800D02*
D03*
X2298700Y3098800D02*
D03*
X2258700Y2844800D02*
D03*
X2298700Y2590800D02*
D03*
X2258700Y2336800D02*
D03*
X2298700Y2082800D02*
D03*
X2258700Y1828800D02*
D03*
X2298700Y1574800D02*
D03*
X2258700Y1320800D02*
D03*
X2298700Y1066800D02*
D03*
X2258700Y812800D02*
D03*
X2298700Y558800D02*
D03*
X774700D02*
D03*
X814700Y812800D02*
D03*
X774700Y1066800D02*
D03*
X814700Y1320800D02*
D03*
X774700Y1574800D02*
D03*
X814700Y1828800D02*
D03*
X774700Y2082800D02*
D03*
X814700Y2336800D02*
D03*
X774700Y2590800D02*
D03*
X814700Y2844800D02*
D03*
X774700Y3098800D02*
D03*
X814700Y3352800D02*
D03*
X774700Y3606800D02*
D03*
X814700Y3860800D02*
D03*
D35*
X774700Y4114800D02*
D03*
%TF.MD5,4d3888fc7451cb5903ec0238ebb58bd5*%
M02*
