%TF.GenerationSoftware,Altium Limited,Altium Designer,24.0.1 (36)*%
G04 Layer_Color=0*
%FSLAX45Y45*%
%MOMM*%
%TF.SameCoordinates,87475131-42DB-44E4-9C0F-69BDD36FC7AA*%
%TF.FilePolarity,Positive*%
%TF.FileFunction,Plated,1,2,PTH,Drill*%
%TF.Part,Single*%
G01*
G75*
%TA.AperFunction,ComponentDrill*%
%ADD67C,1.00000*%
%ADD68C,1.00000*%
%ADD69C,3.00000*%
%ADD70C,1.30000*%
%ADD71C,1.15000*%
%ADD72C,0.70000*%
%ADD73C,1.10000*%
%TA.AperFunction,ViaDrill,NotFilled*%
%ADD74C,0.30000*%
D67*
X3693500Y1603200D02*
D03*
X3653500Y1857200D02*
D03*
X3693500Y2111200D02*
D03*
X2817500Y3048000D02*
D03*
X2857500Y3302000D02*
D03*
X2817500Y3556000D02*
D03*
D68*
X3569500Y4746200D02*
D03*
X4331500Y4786200D02*
D03*
X4077500Y4746200D02*
D03*
X3823500Y4786200D02*
D03*
X3975100Y2893700D02*
D03*
X4737100Y2933700D02*
D03*
X4483100Y2893700D02*
D03*
X4229100Y2933700D02*
D03*
X2298700Y4114800D02*
D03*
X2258700Y3860800D02*
D03*
X2298700Y3606800D02*
D03*
X2258700Y3352800D02*
D03*
X2298700Y3098800D02*
D03*
X2258700Y2844800D02*
D03*
X2298700Y2590800D02*
D03*
X2258700Y2336800D02*
D03*
X2298700Y2082800D02*
D03*
X2258700Y1828800D02*
D03*
X2298700Y1574800D02*
D03*
X2258700Y1320800D02*
D03*
X2298700Y1066800D02*
D03*
X2258700Y812800D02*
D03*
X2298700Y558800D02*
D03*
X774700D02*
D03*
X814700Y812800D02*
D03*
X774700Y1066800D02*
D03*
X814700Y1320800D02*
D03*
X774700Y1574800D02*
D03*
X814700Y1828800D02*
D03*
X774700Y2082800D02*
D03*
X814700Y2336800D02*
D03*
X774700Y2590800D02*
D03*
X814700Y2844800D02*
D03*
X774700Y3098800D02*
D03*
X814700Y3352800D02*
D03*
X774700Y3606800D02*
D03*
X814700Y3860800D02*
D03*
X774700Y4114800D02*
D03*
D69*
X4025900Y228600D02*
D03*
X241300Y292100D02*
D03*
Y4660900D02*
D03*
X5981700D02*
D03*
D70*
X4570100Y226500D02*
D03*
X5285100D02*
D03*
D71*
X6070600Y469900D02*
D03*
Y977900D02*
D03*
Y1485900D02*
D03*
X6030600Y2247900D02*
D03*
Y2755900D02*
D03*
Y215900D02*
D03*
Y723900D02*
D03*
Y1231900D02*
D03*
Y1739900D02*
D03*
X6070600Y1993900D02*
D03*
Y2501900D02*
D03*
D72*
X4762500Y3695700D02*
D03*
Y3949700D02*
D03*
X5658353Y3695699D02*
D03*
Y3949699D02*
D03*
D73*
X2754400Y1168400D02*
D03*
Y668400D02*
D03*
X3104400Y1168400D02*
D03*
Y668400D02*
D03*
X3454400Y1168400D02*
D03*
Y668400D02*
D03*
D74*
X5399685Y2021485D02*
D03*
X5293956Y2030930D02*
D03*
X3974968Y4368668D02*
D03*
X4064000Y4368800D02*
D03*
X4254500Y3949700D02*
D03*
X3893527Y3588727D02*
D03*
X5180526Y1954726D02*
D03*
X4838700Y1905000D02*
D03*
X4940300Y1943100D02*
D03*
X4902200Y2171700D02*
D03*
X4711700Y1917700D02*
D03*
X4483100Y2501900D02*
D03*
X5740400Y1485900D02*
D03*
X4356100Y1231900D02*
D03*
Y812800D02*
D03*
X4584700Y774700D02*
D03*
X4946500Y705000D02*
D03*
X4775200Y787400D02*
D03*
X1587500Y4076700D02*
D03*
%TF.MD5,1b2b58463fa3f66dab9e75799209e8f4*%
M02*
